<svg xmlns="http://www.w3.org/2000/svg" xmlns:xlink="http://www.w3.org/1999/xlink" contentStyleType="text/css" data-diagram-type="DESCRIPTION" height="975px" preserveAspectRatio="none" style="width:802px;height:975px;background:#FFFFFF;" version="1.1" viewBox="0 0 802 975" width="802px" zoomAndPan="magnify"><defs/><g><!--cluster RealEstate SOA System--><g id="cluster_RealEstate SOA System"><rect fill="#FFFFFF" fill-opacity="0.00000" height="725.38" rx="2.5" ry="2.5" style="stroke:#181818;stroke-width:1;" width="783" x="13.61" y="137.3"/><rect fill="#FFFFFF" fill-opacity="0.00000" height="10" style="stroke:#181818;stroke-width:1;" width="15" x="776.61" y="142.3"/><rect fill="#FFFFFF" fill-opacity="0.00000" height="2" style="stroke:#181818;stroke-width:1;" width="4" x="774.61" y="144.3"/><rect fill="#FFFFFF" fill-opacity="0.00000" height="2" style="stroke:#181818;stroke-width:1;" width="4" x="774.61" y="148.3"/><text fill="#000000" font-family="sans-serif" font-size="14" font-weight="bold" lengthAdjust="spacing" textLength="185.6299" x="312.2951" y="163.2951">RealEstate SOA System</text></g><!--entity ADS--><g id="elem_ADS"><rect fill="#F1F1F1" height="62.5938" rx="2.5" ry="2.5" style="stroke:#181818;stroke-width:0.5;" width="215.8926" x="315.66" y="294.89"/><rect fill="#F1F1F1" height="10" style="stroke:#181818;stroke-width:0.5;" width="15" x="511.5526" y="299.89"/><rect fill="#F1F1F1" height="2" style="stroke:#181818;stroke-width:0.5;" width="4" x="509.5526" y="301.89"/><rect fill="#F1F1F1" height="2" style="stroke:#181818;stroke-width:0.5;" width="4" x="509.5526" y="305.89"/><text fill="#000000" font-family="sans-serif" font-size="14" font-style="italic" lengthAdjust="spacing" textLength="173.8926" x="331.66" y="327.8851">&#171;SOAP Service Provider&#187;</text><text fill="#000000" font-family="sans-serif" font-size="14" lengthAdjust="spacing" textLength="81.9492" x="377.6317" y="344.182">Ads Service</text></g><!--entity GS--><g id="elem_GS"><rect fill="#F1F1F1" height="62.5938" rx="2.5" ry="2.5" style="stroke:#181818;stroke-width:0.5;" width="215.8926" x="171.66" y="172.3"/><rect fill="#F1F1F1" height="10" style="stroke:#181818;stroke-width:0.5;" width="15" x="367.5526" y="177.3"/><rect fill="#F1F1F1" height="2" style="stroke:#181818;stroke-width:0.5;" width="4" x="365.5526" y="179.3"/><rect fill="#F1F1F1" height="2" style="stroke:#181818;stroke-width:0.5;" width="4" x="365.5526" y="183.3"/><text fill="#000000" font-family="sans-serif" font-size="14" font-style="italic" lengthAdjust="spacing" textLength="173.8926" x="187.66" y="205.2951">&#171;SOAP Service Provider&#187;</text><text fill="#000000" font-family="sans-serif" font-size="14" lengthAdjust="spacing" textLength="139.7676" x="204.7225" y="221.592">Geolocation Service</text></g><!--entity AS--><g id="elem_AS"><rect fill="#F1F1F1" height="62.5938" rx="2.5" ry="2.5" style="stroke:#181818;stroke-width:0.5;" width="213.9785" x="29.62" y="294.89"/><rect fill="#F1F1F1" height="10" style="stroke:#181818;stroke-width:0.5;" width="15" x="223.5985" y="299.89"/><rect fill="#F1F1F1" height="2" style="stroke:#181818;stroke-width:0.5;" width="4" x="221.5985" y="301.89"/><rect fill="#F1F1F1" height="2" style="stroke:#181818;stroke-width:0.5;" width="4" x="221.5985" y="305.89"/><text fill="#000000" font-family="sans-serif" font-size="14" font-style="italic" lengthAdjust="spacing" textLength="171.9785" x="45.62" y="327.8851">&#171;REST Service Provider&#187;</text><text fill="#000000" font-family="sans-serif" font-size="14" lengthAdjust="spacing" textLength="112.9639" x="75.1273" y="344.182">Account Service</text></g><!--entity WS--><g id="elem_WS"><rect fill="#F1F1F1" height="62.5938" rx="2.5" ry="2.5" style="stroke:#181818;stroke-width:0.5;" width="213.9785" x="566.62" y="294.89"/><rect fill="#F1F1F1" height="10" style="stroke:#181818;stroke-width:0.5;" width="15" x="760.5985" y="299.89"/><rect fill="#F1F1F1" height="2" style="stroke:#181818;stroke-width:0.5;" width="4" x="758.5985" y="301.89"/><rect fill="#F1F1F1" height="2" style="stroke:#181818;stroke-width:0.5;" width="4" x="758.5985" y="305.89"/><text fill="#000000" font-family="sans-serif" font-size="14" font-style="italic" lengthAdjust="spacing" textLength="171.9785" x="582.62" y="327.8851">&#171;REST Service Provider&#187;</text><text fill="#000000" font-family="sans-serif" font-size="14" lengthAdjust="spacing" textLength="100.4951" x="618.3617" y="344.182">Wallet Service</text></g><!--entity SS--><g id="elem_SS"><rect fill="#F1F1F1" height="62.5938" rx="2.5" ry="2.5" style="stroke:#181818;stroke-width:0.5;" width="222.7217" x="172.25" y="539.49"/><rect fill="#F1F1F1" height="10" style="stroke:#181818;stroke-width:0.5;" width="15" x="374.9717" y="544.49"/><rect fill="#F1F1F1" height="2" style="stroke:#181818;stroke-width:0.5;" width="4" x="372.9717" y="546.49"/><rect fill="#F1F1F1" height="2" style="stroke:#181818;stroke-width:0.5;" width="4" x="372.9717" y="550.49"/><text fill="#000000" font-family="sans-serif" font-size="14" font-style="italic" lengthAdjust="spacing" textLength="180.7217" x="188.25" y="572.4851">&#171;REST Service Prosumer&#187;</text><text fill="#000000" font-family="sans-serif" font-size="14" lengthAdjust="spacing" textLength="104.5967" x="226.3125" y="588.782">Search Service</text></g><!--entity PS--><g id="elem_PS"><rect fill="#F1F1F1" height="62.5938" rx="2.5" ry="2.5" style="stroke:#181818;stroke-width:0.5;" width="222.7217" x="430.25" y="539.49"/><rect fill="#F1F1F1" height="10" style="stroke:#181818;stroke-width:0.5;" width="15" x="632.9717" y="544.49"/><rect fill="#F1F1F1" height="2" style="stroke:#181818;stroke-width:0.5;" width="4" x="630.9717" y="546.49"/><rect fill="#F1F1F1" height="2" style="stroke:#181818;stroke-width:0.5;" width="4" x="630.9717" y="550.49"/><text fill="#000000" font-family="sans-serif" font-size="14" font-style="italic" lengthAdjust="spacing" textLength="180.7217" x="446.25" y="572.4851">&#171;REST Service Prosumer&#187;</text><text fill="#000000" font-family="sans-serif" font-size="14" lengthAdjust="spacing" textLength="106.3398" x="483.4409" y="588.782">Publish Service</text></g><!--entity GW--><g id="elem_GW"><rect fill="#F1F1F1" height="62.5938" rx="2.5" ry="2.5" style="stroke:#181818;stroke-width:0.5;" width="222.7217" x="172.25" y="784.08"/><rect fill="#F1F1F1" height="10" style="stroke:#181818;stroke-width:0.5;" width="15" x="374.9717" y="789.08"/><rect fill="#F1F1F1" height="2" style="stroke:#181818;stroke-width:0.5;" width="4" x="372.9717" y="791.08"/><rect fill="#F1F1F1" height="2" style="stroke:#181818;stroke-width:0.5;" width="4" x="372.9717" y="795.08"/><text fill="#000000" font-family="sans-serif" font-size="14" font-style="italic" lengthAdjust="spacing" textLength="180.7217" x="188.25" y="817.0751">&#171;REST Service Prosumer&#187;</text><text fill="#000000" font-family="sans-serif" font-size="14" lengthAdjust="spacing" textLength="118.0361" x="219.5928" y="833.372">Gateway Service</text></g><!--entity AccountDB--><g id="elem_AccountDB"><path d="M70.03,16 C70.03,6 118.6086,6 118.6086,6 C118.6086,6 167.1872,6 167.1872,16 L167.1872,41.2969 C167.1872,51.2969 118.6086,51.2969 118.6086,51.2969 C118.6086,51.2969 70.03,51.2969 70.03,41.2969 L70.03,16 " fill="#F1F1F1" style="stroke:#181818;stroke-width:0.5;"/><path d="M70.03,16 C70.03,26 118.6086,26 118.6086,26 C118.6086,26 167.1872,26 167.1872,16 " fill="#FFFFFF" fill-opacity="0.00000" style="stroke:#181818;stroke-width:0.5;"/><text fill="#000000" font-family="sans-serif" font-size="14" lengthAdjust="spacing" textLength="77.1572" x="80.03" y="42.9951">AccountDB</text></g><!--entity AdsDB--><g id="elem_AdsDB"><path d="M407.54,16 C407.54,6 440.6113,6 440.6113,6 C440.6113,6 473.6826,6 473.6826,16 L473.6826,41.2969 C473.6826,51.2969 440.6113,51.2969 440.6113,51.2969 C440.6113,51.2969 407.54,51.2969 407.54,41.2969 L407.54,16 " fill="#F1F1F1" style="stroke:#181818;stroke-width:0.5;"/><path d="M407.54,16 C407.54,26 440.6113,26 440.6113,26 C440.6113,26 473.6826,26 473.6826,16 " fill="#FFFFFF" fill-opacity="0.00000" style="stroke:#181818;stroke-width:0.5;"/><text fill="#000000" font-family="sans-serif" font-size="14" lengthAdjust="spacing" textLength="46.1426" x="417.54" y="42.9951">AdsDB</text></g><!--entity WalletDB--><g id="elem_WalletDB"><path d="M631.27,16 C631.27,6 673.6142,6 673.6142,6 C673.6142,6 715.9585,6 715.9585,16 L715.9585,41.2969 C715.9585,51.2969 673.6142,51.2969 673.6142,51.2969 C673.6142,51.2969 631.27,51.2969 631.27,41.2969 L631.27,16 " fill="#F1F1F1" style="stroke:#181818;stroke-width:0.5;"/><path d="M631.27,16 C631.27,26 673.6142,26 673.6142,26 C673.6142,26 715.9585,26 715.9585,16 " fill="#FFFFFF" fill-opacity="0.00000" style="stroke:#181818;stroke-width:0.5;"/><text fill="#000000" font-family="sans-serif" font-size="14" lengthAdjust="spacing" textLength="64.6885" x="641.27" y="42.9951">WalletDB</text></g><!--entity C--><g id="elem_C"><rect fill="#F1F1F1" height="62.5938" rx="2.5" ry="2.5" style="stroke:#181818;stroke-width:0.5;" width="216.292" x="175.46" y="906.68"/><rect fill="#F1F1F1" height="10" style="stroke:#181818;stroke-width:0.5;" width="15" x="371.752" y="911.68"/><rect fill="#F1F1F1" height="2" style="stroke:#181818;stroke-width:0.5;" width="4" x="369.752" y="913.68"/><rect fill="#F1F1F1" height="2" style="stroke:#181818;stroke-width:0.5;" width="4" x="369.752" y="917.68"/><text fill="#000000" font-family="sans-serif" font-size="14" font-style="italic" lengthAdjust="spacing" textLength="57.6611" x="249.7754" y="939.6751">&#171;Client&#187;</text><text fill="#000000" font-family="sans-serif" font-size="14" lengthAdjust="spacing" textLength="176.292" x="190.46" y="955.972">RealEstate Service Client</text></g><!--link GW to C--><g id="link_GW_C"><path d="M283.61,846.95 C283.61,865.25 283.61,888.22 283.61,906.51 " fill="#FFFFFF" fill-opacity="0.00000" id="GW-C" style="stroke:#181818;stroke-width:1;"/><path d="M276.5389,883.8048 A10,10 0 0 0 290.6811 883.8048" fill="#FFFFFF" fill-opacity="0.00000" style="stroke:#181818;stroke-width:1.5;"/><ellipse cx="283.61" cy="876.7338" fill="#FFFFFF" rx="6" ry="6" style="stroke:#181818;stroke-width:1.5;"/></g><!--link AccountDB to AS--><g id="link_AccountDB_AS"><path d="M118.61,51.51 C118.61,104.17 118.61,234.15 118.61,294.49 " fill="#FFFFFF" fill-opacity="0.00000" id="AccountDB-AS" style="stroke:#181818;stroke-width:1;"/><path d="M111.5389,177.1911 A10,10 0 0 0 125.6811 177.1911" fill="#FFFFFF" fill-opacity="0.00000" style="stroke:#181818;stroke-width:1.5;"/><ellipse cx="118.61" cy="170.12" fill="#FFFFFF" rx="6" ry="6" style="stroke:#181818;stroke-width:1.5;"/></g><!--link AS to GW--><g id="link_AS_GW"><path d="M50,357.93 C50,463.06 50,793.27 50,793.27 C50,793.27 111.87,793.27 171.93,793.27 " fill="#FFFFFF" fill-opacity="0.00000" id="AS-GW" style="stroke:#181818;stroke-width:1;"/><text fill="#000000" font-family="sans-serif" font-size="13" lengthAdjust="spacing" textLength="35.2993" x="7" y="625.6369">Login</text><path d="M42.9289,622.0948 A10,10 0 0 0 57.0711 622.0948" fill="#FFFFFF" fill-opacity="0.00000" style="stroke:#181818;stroke-width:1.5;"/><ellipse cx="50" cy="615.0238" fill="#FFFFFF" rx="6" ry="6" style="stroke:#181818;stroke-width:1.5;"/></g><!--link AS to GW--><g id="link_AS_GW"><path d="M70.37,357.8 C70.37,464.13 70.37,802.27 70.37,802.27 C70.37,802.27 120.4,802.27 171.99,802.27 " fill="#FFFFFF" fill-opacity="0.00000" id="AS-GW-1" style="stroke:#181818;stroke-width:1;"/><text fill="#000000" font-family="sans-serif" font-size="13" lengthAdjust="spacing" textLength="142.6699" x="78.37" y="650.9169">CheckTokenResponse</text><path d="M63.2989,626.9798 A10,10 0 0 0 77.4411 626.9798" fill="#FFFFFF" fill-opacity="0.00000" style="stroke:#181818;stroke-width:1.5;"/><ellipse cx="70.37" cy="619.9088" fill="#FFFFFF" rx="6" ry="6" style="stroke:#181818;stroke-width:1.5;"/></g><!--link AS to GW--><g id="link_AS_GW"><path d="M90.75,357.65 C90.75,465.14 90.75,811.27 90.75,811.27 C90.75,811.27 129.33,811.27 171.98,811.27 " fill="#FFFFFF" fill-opacity="0.00000" id="AS-GW-2" style="stroke:#181818;stroke-width:1;"/><text fill="#000000" font-family="sans-serif" font-size="13" lengthAdjust="spacing" textLength="75.8862" x="98.75" y="614.1369">GetAccount</text><path d="M83.6789,631.8398 A10,10 0 0 0 97.8211 631.8398" fill="#FFFFFF" fill-opacity="0.00000" style="stroke:#181818;stroke-width:1.5;"/><ellipse cx="90.75" cy="624.7688" fill="#FFFFFF" rx="6" ry="6" style="stroke:#181818;stroke-width:1.5;"/></g><!--link AS to GW--><g id="link_AS_GW"><path d="M111.12,357.85 C111.12,466.9 111.12,820.27 111.12,820.27 C111.12,820.27 138.77,820.27 171.94,820.27 " fill="#FFFFFF" fill-opacity="0.00000" id="AS-GW-3" style="stroke:#181818;stroke-width:1;"/><text fill="#000000" font-family="sans-serif" font-size="13" lengthAdjust="spacing" textLength="82.6592" x="21.12" y="608.5369">GetAccounts</text><path d="M104.0489,637.0248 A10,10 0 0 0 118.1911 637.0248" fill="#FFFFFF" fill-opacity="0.00000" style="stroke:#181818;stroke-width:1.5;"/><ellipse cx="111.12" cy="629.9538" fill="#FFFFFF" rx="6" ry="6" style="stroke:#181818;stroke-width:1.5;"/></g><!--link AS to GW--><g id="link_AS_GW"><path d="M131.5,357.66 C131.5,467.8 131.5,829.27 131.5,829.27 C131.5,829.27 148.86,829.27 171.86,829.27 " fill="#FFFFFF" fill-opacity="0.00000" id="AS-GW-4" style="stroke:#181818;stroke-width:1;"/><text fill="#000000" font-family="sans-serif" font-size="13" lengthAdjust="spacing" textLength="107.5674" x="139.5" y="633.7169">PromoteAccount</text><path d="M124.4289,641.8386 A10,10 0 0 0 138.5711 641.8386" fill="#FFFFFF" fill-opacity="0.00000" style="stroke:#181818;stroke-width:1.5;"/><ellipse cx="131.5" cy="634.7675" fill="#FFFFFF" rx="6" ry="6" style="stroke:#181818;stroke-width:1.5;"/></g><!--link AS to GW--><g id="link_AS_GW"><path d="M151.87,357.84 C151.87,469.48 151.87,838.27 151.87,838.27 C151.87,838.27 159.85,838.27 171.88,838.27 " fill="#FFFFFF" fill-opacity="0.00000" id="AS-GW-5" style="stroke:#181818;stroke-width:1;"/><text fill="#000000" font-family="sans-serif" font-size="13" lengthAdjust="spacing" textLength="104.438" x="159.87" y="597.1269">DemoteAccount</text><path d="M144.7989,646.9911 A10,10 0 0 0 158.9411 646.9911" fill="#FFFFFF" fill-opacity="0.00000" style="stroke:#181818;stroke-width:1.5;"/><ellipse cx="151.87" cy="639.92" fill="#FFFFFF" rx="6" ry="6" style="stroke:#181818;stroke-width:1.5;"/></g><!--link AS to PS--><g id="link_AS_PS"><path d="M207.92,357.89 C207.92,394.35 207.92,449.27 207.92,449.27 C207.92,449.27 444.72,449.27 444.72,449.27 C444.72,449.27 444.72,503.17 444.72,539.18 " fill="#FFFFFF" fill-opacity="0.00000" id="AS-PS" style="stroke:#181818;stroke-width:1;"/><text fill="#000000" font-family="sans-serif" font-size="13" lengthAdjust="spacing" textLength="117.0698" x="200.58" y="469.3369">OpenAccountUser</text><path d="M333.3911,456.3411 A10,10 0 0 0 333.3911 442.1989" fill="#FFFFFF" fill-opacity="0.00000" style="stroke:#181818;stroke-width:1.5;"/><ellipse cx="326.32" cy="449.27" fill="#FFFFFF" rx="6" ry="6" style="stroke:#181818;stroke-width:1.5;"/></g><!--link AdsDB to ADS--><g id="link_AdsDB_ADS"><path d="M440.61,51.51 C440.61,104.17 440.61,234.15 440.61,294.49 " fill="#FFFFFF" fill-opacity="0.00000" id="AdsDB-ADS" style="stroke:#181818;stroke-width:1;"/><path d="M433.5389,177.1911 A10,10 0 0 0 447.6811 177.1911" fill="#FFFFFF" fill-opacity="0.00000" style="stroke:#181818;stroke-width:1.5;"/><ellipse cx="440.61" cy="170.12" fill="#FFFFFF" rx="6" ry="6" style="stroke:#181818;stroke-width:1.5;"/></g><!--link ADS to PS--><g id="link_ADS_PS"><path d="M459.19,357.67 C459.19,404.5 459.19,492.05 459.19,539.04 " fill="#FFFFFF" fill-opacity="0.00000" id="ADS-PS" style="stroke:#181818;stroke-width:1;"/><text fill="#000000" font-family="sans-serif" font-size="13" lengthAdjust="spacing" textLength="60.6265" x="467.19" y="437.4269">CreateAd</text><path d="M452.1189,455.3661 A10,10 0 0 0 466.2611 455.3661" fill="#FFFFFF" fill-opacity="0.00000" style="stroke:#181818;stroke-width:1.5;"/><ellipse cx="459.19" cy="448.295" fill="#FFFFFF" rx="6" ry="6" style="stroke:#181818;stroke-width:1.5;"/></g><!--link ADS to PS--><g id="link_ADS_PS"><path d="M473.67,357.67 C473.67,404.5 473.67,492.05 473.67,539.04 " fill="#FFFFFF" fill-opacity="0.00000" id="ADS-PS-1" style="stroke:#181818;stroke-width:1;"/><text fill="#000000" font-family="sans-serif" font-size="13" lengthAdjust="spacing" textLength="71.5317" x="481.67" y="468.4269">ApproveAd</text><path d="M466.5989,455.3661 A10,10 0 0 0 480.7411 455.3661" fill="#FFFFFF" fill-opacity="0.00000" style="stroke:#181818;stroke-width:1.5;"/><ellipse cx="473.67" cy="448.295" fill="#FFFFFF" rx="6" ry="6" style="stroke:#181818;stroke-width:1.5;"/></g><!--link ADS to PS--><g id="link_ADS_PS"><path d="M488.14,357.67 C488.14,404.5 488.14,492.05 488.14,539.04 " fill="#FFFFFF" fill-opacity="0.00000" id="ADS-PS-2" style="stroke:#181818;stroke-width:1;"/><text fill="#000000" font-family="sans-serif" font-size="13" lengthAdjust="spacing" textLength="58.0303" x="496.14" y="437.4269">RejectAd</text><path d="M481.0689,455.3661 A10,10 0 0 0 495.2111 455.3661" fill="#FFFFFF" fill-opacity="0.00000" style="stroke:#181818;stroke-width:1.5;"/><ellipse cx="488.14" cy="448.295" fill="#FFFFFF" rx="6" ry="6" style="stroke:#181818;stroke-width:1.5;"/></g><!--link ADS to PS--><g id="link_ADS_PS"><path d="M502.61,357.67 C502.61,404.5 502.61,492.05 502.61,539.04 " fill="#FFFFFF" fill-opacity="0.00000" id="ADS-PS-3" style="stroke:#181818;stroke-width:1;"/><text fill="#000000" font-family="sans-serif" font-size="13" lengthAdjust="spacing" textLength="47.0869" x="510.61" y="468.4269">GetAds</text><path d="M495.5389,455.3661 A10,10 0 0 0 509.6811 455.3661" fill="#FFFFFF" fill-opacity="0.00000" style="stroke:#181818;stroke-width:1.5;"/><ellipse cx="502.61" cy="448.295" fill="#FFFFFF" rx="6" ry="6" style="stroke:#181818;stroke-width:1.5;"/></g><!--link ADS to PS--><g id="link_ADS_PS"><path d="M517.08,357.67 C517.08,404.5 517.08,492.05 517.08,539.04 " fill="#FFFFFF" fill-opacity="0.00000" id="ADS-PS-4" style="stroke:#181818;stroke-width:1;"/><text fill="#000000" font-family="sans-serif" font-size="13" lengthAdjust="spacing" textLength="128.502" x="525.08" y="437.4269">GetAdsByAccountId</text><path d="M510.0089,455.3661 A10,10 0 0 0 524.1511 455.3661" fill="#FFFFFF" fill-opacity="0.00000" style="stroke:#181818;stroke-width:1.5;"/><ellipse cx="517.08" cy="448.295" fill="#FFFFFF" rx="6" ry="6" style="stroke:#181818;stroke-width:1.5;"/></g><!--link ADS to SS--><g id="link_ADS_SS"><path d="M335.49,357.67 C335.49,404.5 335.49,492.05 335.49,539.04 " fill="#FFFFFF" fill-opacity="0.00000" id="ADS-SS" style="stroke:#181818;stroke-width:1;"/><text fill="#000000" font-family="sans-serif" font-size="13" lengthAdjust="spacing" textLength="47.0869" x="280.49" y="437.4269">GetAds</text><path d="M328.4189,455.3661 A10,10 0 0 0 342.5611 455.3661" fill="#FFFFFF" fill-opacity="0.00000" style="stroke:#181818;stroke-width:1.5;"/><ellipse cx="335.49" cy="448.295" fill="#FFFFFF" rx="6" ry="6" style="stroke:#181818;stroke-width:1.5;"/></g><!--link ADS to SS--><g id="link_ADS_SS"><path d="M355.32,357.67 C355.32,404.5 355.32,492.05 355.32,539.04 " fill="#FFFFFF" fill-opacity="0.00000" id="ADS-SS-1" style="stroke:#181818;stroke-width:1;"/><text fill="#000000" font-family="sans-serif" font-size="13" lengthAdjust="spacing" textLength="89.1782" x="363.32" y="437.4269">GetAdsByCity</text><path d="M348.2489,455.3661 A10,10 0 0 0 362.3911 455.3661" fill="#FFFFFF" fill-opacity="0.00000" style="stroke:#181818;stroke-width:1.5;"/><ellipse cx="355.32" cy="448.295" fill="#FFFFFF" rx="6" ry="6" style="stroke:#181818;stroke-width:1.5;"/></g><!--link ADS to SS--><g id="link_ADS_SS"><path d="M375.14,357.67 C375.14,404.5 375.14,492.05 375.14,539.04 " fill="#FFFFFF" fill-opacity="0.00000" id="ADS-SS-2" style="stroke:#181818;stroke-width:1;"/><text fill="#000000" font-family="sans-serif" font-size="13" lengthAdjust="spacing" textLength="105.9043" x="383.14" y="468.4269">GetAdsMaxPrice</text><path d="M368.0689,455.3661 A10,10 0 0 0 382.2111 455.3661" fill="#FFFFFF" fill-opacity="0.00000" style="stroke:#181818;stroke-width:1.5;"/><ellipse cx="375.14" cy="448.295" fill="#FFFFFF" rx="6" ry="6" style="stroke:#181818;stroke-width:1.5;"/></g><!--link WalletDB to WS--><g id="link_WalletDB_WS"><path d="M673.61,51.51 C673.61,104.17 673.61,234.15 673.61,294.49 " fill="#FFFFFF" fill-opacity="0.00000" id="WalletDB-WS" style="stroke:#181818;stroke-width:1;"/><path d="M666.5389,177.1911 A10,10 0 0 0 680.6811 177.1911" fill="#FFFFFF" fill-opacity="0.00000" style="stroke:#181818;stroke-width:1.5;"/><ellipse cx="673.61" cy="170.12" fill="#FFFFFF" rx="6" ry="6" style="stroke:#181818;stroke-width:1.5;"/></g><!--link WS to GW--><g id="link_WS_GW"><path d="M716.79,357.9 C716.79,469.76 716.79,839.27 716.79,839.27 C716.79,839.27 523.79,839.27 395.44,839.27 " fill="#FFFFFF" fill-opacity="0.00000" id="WS-GW" style="stroke:#181818;stroke-width:1;"/><text fill="#000000" font-family="sans-serif" font-size="13" lengthAdjust="spacing" textLength="103.1177" x="605.79" y="748.3269">RechargeWallet</text><path d="M709.7189,647.6036 A10,10 0 0 0 723.8611 647.6036" fill="#FFFFFF" fill-opacity="0.00000" style="stroke:#181818;stroke-width:1.5;"/><ellipse cx="716.79" cy="640.5325" fill="#FFFFFF" rx="6" ry="6" style="stroke:#181818;stroke-width:1.5;"/></g><!--link WS to PS--><g id="link_WS_PS"><path d="M583.89,357.67 C583.89,404.5 583.89,492.05 583.89,539.04 " fill="#FFFFFF" fill-opacity="0.00000" id="WS-PS" style="stroke:#181818;stroke-width:1;"/><text fill="#000000" font-family="sans-serif" font-size="13" lengthAdjust="spacing" textLength="84.6206" x="591.89" y="468.4269">CreateWallet</text><path d="M576.8189,455.3661 A10,10 0 0 0 590.9611 455.3661" fill="#FFFFFF" fill-opacity="0.00000" style="stroke:#181818;stroke-width:1.5;"/><ellipse cx="583.89" cy="448.295" fill="#FFFFFF" rx="6" ry="6" style="stroke:#181818;stroke-width:1.5;"/></g><!--link WS to PS--><g id="link_WS_PS"><path d="M601.16,357.67 C601.16,404.5 601.16,492.05 601.16,539.04 " fill="#FFFFFF" fill-opacity="0.00000" id="WS-PS-1" style="stroke:#181818;stroke-width:1;"/><text fill="#000000" font-family="sans-serif" font-size="13" lengthAdjust="spacing" textLength="64.3081" x="609.16" y="437.4269">GetWallet</text><path d="M594.0889,455.3661 A10,10 0 0 0 608.2311 455.3661" fill="#FFFFFF" fill-opacity="0.00000" style="stroke:#181818;stroke-width:1.5;"/><ellipse cx="601.16" cy="448.295" fill="#FFFFFF" rx="6" ry="6" style="stroke:#181818;stroke-width:1.5;"/></g><!--link WS to PS--><g id="link_WS_PS"><path d="M618.43,357.67 C618.43,404.5 618.43,492.05 618.43,539.04 " fill="#FFFFFF" fill-opacity="0.00000" id="WS-PS-2" style="stroke:#181818;stroke-width:1;"/><text fill="#000000" font-family="sans-serif" font-size="13" lengthAdjust="spacing" textLength="88.0166" x="626.43" y="468.4269">ChargeWallet</text><path d="M611.3589,455.3661 A10,10 0 0 0 625.5011 455.3661" fill="#FFFFFF" fill-opacity="0.00000" style="stroke:#181818;stroke-width:1.5;"/><ellipse cx="618.43" cy="448.295" fill="#FFFFFF" rx="6" ry="6" style="stroke:#181818;stroke-width:1.5;"/></g><!--link WS to PS--><g id="link_WS_PS"><path d="M635.7,357.67 C635.7,404.5 635.7,492.05 635.7,539.04 " fill="#FFFFFF" fill-opacity="0.00000" id="WS-PS-3" style="stroke:#181818;stroke-width:1;"/><text fill="#000000" font-family="sans-serif" font-size="13" lengthAdjust="spacing" textLength="103.1177" x="643.7" y="437.4269">RechargeWallet</text><path d="M628.6289,455.3661 A10,10 0 0 0 642.7711 455.3661" fill="#FFFFFF" fill-opacity="0.00000" style="stroke:#181818;stroke-width:1.5;"/><ellipse cx="635.7" cy="448.295" fill="#FFFFFF" rx="6" ry="6" style="stroke:#181818;stroke-width:1.5;"/></g><!--link GS to SS--><g id="link_GS_SS"><path d="M267.62,235.22 C267.62,304.63 267.62,469.65 267.62,539.11 " fill="#FFFFFF" fill-opacity="0.00000" id="GS-SS" style="stroke:#181818;stroke-width:1;"/><text fill="#000000" font-family="sans-serif" font-size="13" lengthAdjust="spacing" textLength="117.5586" x="142.62" y="407.2269">CalculateDistance</text><path d="M260.5489,394.2173 A10,10 0 0 0 274.6911 394.2173" fill="#FFFFFF" fill-opacity="0.00000" style="stroke:#181818;stroke-width:1.5;"/><ellipse cx="267.62" cy="387.1463" fill="#FFFFFF" rx="6" ry="6" style="stroke:#181818;stroke-width:1.5;"/></g><!--link GS to SS--><g id="link_GS_SS"><path d="M291.64,235.22 C291.64,304.63 291.64,469.65 291.64,539.11 " fill="#FFFFFF" fill-opacity="0.00000" id="GS-SS-1" style="stroke:#181818;stroke-width:1;"/><text fill="#000000" font-family="sans-serif" font-size="13" lengthAdjust="spacing" textLength="123.4492" x="299.64" y="407.2269">GetLocationDetails</text><path d="M284.5689,394.2173 A10,10 0 0 0 298.7111 394.2173" fill="#FFFFFF" fill-opacity="0.00000" style="stroke:#181818;stroke-width:1.5;"/><ellipse cx="291.64" cy="387.1463" fill="#FFFFFF" rx="6" ry="6" style="stroke:#181818;stroke-width:1.5;"/></g><!--link SS to GW--><g id="link_SS_GW"><path d="M227.93,602.26 C227.93,649.1 227.93,736.65 227.93,783.64 " fill="#FFFFFF" fill-opacity="0.00000" id="SS-GW" style="stroke:#181818;stroke-width:1;"/><text fill="#000000" font-family="sans-serif" font-size="13" lengthAdjust="spacing" textLength="87.0391" x="132.93" y="682.0169">SearchByCity</text><path d="M220.8589,699.9648 A10,10 0 0 0 235.0011 699.9648" fill="#FFFFFF" fill-opacity="0.00000" style="stroke:#181818;stroke-width:1.5;"/><ellipse cx="227.93" cy="692.8938" fill="#FFFFFF" rx="6" ry="6" style="stroke:#181818;stroke-width:1.5;"/></g><!--link SS to GW--><g id="link_SS_GW"><path d="M283.61,602.26 C283.61,649.1 283.61,736.65 283.61,783.64 " fill="#FFFFFF" fill-opacity="0.00000" id="SS-GW-1" style="stroke:#181818;stroke-width:1;"/><text fill="#000000" font-family="sans-serif" font-size="13" lengthAdjust="spacing" textLength="89.8193" x="186.61" y="713.0169">SearchByTitle</text><path d="M276.5389,699.9648 A10,10 0 0 0 290.6811 699.9648" fill="#FFFFFF" fill-opacity="0.00000" style="stroke:#181818;stroke-width:1.5;"/><ellipse cx="283.61" cy="692.8938" fill="#FFFFFF" rx="6" ry="6" style="stroke:#181818;stroke-width:1.5;"/></g><!--link SS to GW--><g id="link_SS_GW"><path d="M339.29,602.26 C339.29,649.1 339.29,736.65 339.29,783.64 " fill="#FFFFFF" fill-opacity="0.00000" id="SS-GW-2" style="stroke:#181818;stroke-width:1;"/><text fill="#000000" font-family="sans-serif" font-size="13" lengthAdjust="spacing" textLength="113.5532" x="347.29" y="682.0169">SearchByLatLong</text><path d="M332.2189,699.9648 A10,10 0 0 0 346.3611 699.9648" fill="#FFFFFF" fill-opacity="0.00000" style="stroke:#181818;stroke-width:1.5;"/><ellipse cx="339.29" cy="692.8938" fill="#FFFFFF" rx="6" ry="6" style="stroke:#181818;stroke-width:1.5;"/></g><!--link PS to GW--><g id="link_PS_GW"><path d="M462.07,602.52 C462.07,663.76 462.07,792.27 462.07,792.27 C462.07,792.27 431.33,792.27 395.36,792.27 " fill="#FFFFFF" fill-opacity="0.00000" id="PS-GW" style="stroke:#181818;stroke-width:1;"/><text fill="#000000" font-family="sans-serif" font-size="13" lengthAdjust="spacing" textLength="63.7114" x="391.07" y="719.8169">PublishAd</text><path d="M454.9989,727.4311 A10,10 0 0 0 469.1411 727.4311" fill="#FFFFFF" fill-opacity="0.00000" style="stroke:#181818;stroke-width:1.5;"/><ellipse cx="462.07" cy="720.36" fill="#FFFFFF" rx="6" ry="6" style="stroke:#181818;stroke-width:1.5;"/></g><!--link PS to GW--><g id="link_PS_GW"><path d="M493.88,602.21 C493.88,665.06 493.88,800.27 493.88,800.27 C493.88,800.27 445.54,800.27 395.21,800.27 " fill="#FFFFFF" fill-opacity="0.00000" id="PS-GW-1" style="stroke:#181818;stroke-width:1;"/><text fill="#000000" font-family="sans-serif" font-size="13" lengthAdjust="spacing" textLength="134.0054" x="351.88" y="770.6469">OpenPublishAccount</text><path d="M486.8089,731.8798 A10,10 0 0 0 500.9511 731.8798" fill="#FFFFFF" fill-opacity="0.00000" style="stroke:#181818;stroke-width:1.5;"/><ellipse cx="493.88" cy="724.8087" fill="#FFFFFF" rx="6" ry="6" style="stroke:#181818;stroke-width:1.5;"/></g><!--link PS to GW--><g id="link_PS_GW"><path d="M525.7,602.32 C525.7,666.92 525.7,808.27 525.7,808.27 C525.7,808.27 458.88,808.27 395.44,808.27 " fill="#FFFFFF" fill-opacity="0.00000" id="PS-GW-2" style="stroke:#181818;stroke-width:1;"/><text fill="#000000" font-family="sans-serif" font-size="13" lengthAdjust="spacing" textLength="71.5317" x="533.7" y="790.4869">ApproveAd</text><path d="M518.6289,736.5911 A10,10 0 0 0 532.7711 736.5911" fill="#FFFFFF" fill-opacity="0.00000" style="stroke:#181818;stroke-width:1.5;"/><ellipse cx="525.7" cy="729.52" fill="#FFFFFF" rx="6" ry="6" style="stroke:#181818;stroke-width:1.5;"/></g><!--link PS to GW--><g id="link_PS_GW"><path d="M557.52,602.38 C557.52,668.68 557.52,816.27 557.52,816.27 C557.52,816.27 471.15,816.27 395.41,816.27 " fill="#FFFFFF" fill-opacity="0.00000" id="PS-GW-3" style="stroke:#181818;stroke-width:1;"/><text fill="#000000" font-family="sans-serif" font-size="13" lengthAdjust="spacing" textLength="58.0303" x="491.52" y="810.4469">RejectAd</text><path d="M550.4489,741.2586 A10,10 0 0 0 564.5911 741.2586" fill="#FFFFFF" fill-opacity="0.00000" style="stroke:#181818;stroke-width:1.5;"/><ellipse cx="557.52" cy="734.1875" fill="#FFFFFF" rx="6" ry="6" style="stroke:#181818;stroke-width:1.5;"/></g><!--link PS to GW--><g id="link_PS_GW"><path d="M589.34,602.51 C589.34,670.32 589.34,823.27 589.34,823.27 C589.34,823.27 482.62,823.27 395.28,823.27 " fill="#FFFFFF" fill-opacity="0.00000" id="PS-GW-4" style="stroke:#181818;stroke-width:1;"/><text fill="#000000" font-family="sans-serif" font-size="13" lengthAdjust="spacing" textLength="47.0869" x="565.84" y="829.9869">GetAds</text><path d="M582.2689,745.3898 A10,10 0 0 0 596.4111 745.3898" fill="#FFFFFF" fill-opacity="0.00000" style="stroke:#181818;stroke-width:1.5;"/><ellipse cx="589.34" cy="738.3188" fill="#FFFFFF" rx="6" ry="6" style="stroke:#181818;stroke-width:1.5;"/></g><!--link PS to GW--><g id="link_PS_GW"><path d="M621.15,602.47 C621.15,671.89 621.15,831.27 621.15,831.27 C621.15,831.27 493.39,831.27 395.07,831.27 " fill="#FFFFFF" fill-opacity="0.00000" id="PS-GW-5" style="stroke:#181818;stroke-width:1;"/><text fill="#000000" font-family="sans-serif" font-size="13" lengthAdjust="spacing" textLength="128.502" x="629.15" y="818.9769">GetAdsByAccountId</text><path d="M614.0789,749.9736 A10,10 0 0 0 628.2211 749.9736" fill="#FFFFFF" fill-opacity="0.00000" style="stroke:#181818;stroke-width:1.5;"/><ellipse cx="621.15" cy="742.9025" fill="#FFFFFF" rx="6" ry="6" style="stroke:#181818;stroke-width:1.5;"/></g><!--SRC=[XPJ1QkCm48RlUWhHMm-1NFPIIi6rIrX8gR6o-53seCf3eeqi6KlfhbdstNSKEwxaskdHyyytendziZrAtV2MrrH93QvhW9hM7Goneo1CtHWDsh662wdtzDjwJKZ57N_Z5cWYX3bfbpq6eSg6doLN2dm26KlHcmAuUhAEEw3i9Q6iimxg6_gN4FgAF6NGlai1FoctDCaOlR_7jFmIfdbhtcK5xSC3ySG6Z3A2EsbqH6wkWxvNV_oudwUA9xQRfMWFzbD5N7cLyn03tef31B4vo9xgSRRyzAQaZQ7yAsY3Y_tDktWPvHNe7o6luPqC6QcIU5rdF4Mw__GziDXgVRkYAI6Z0-ZAXrQuFu8h73umyOvkpLvgCesc1n37dJc2Bi2YCInCCpRWXkg1WiFVqPS6z23ziD0kWtOguT2rSV2vxbdD81J9sShZN1aEbiNdI5l0VINLXz37awR1ku-4GIdW5mWt8_WpLtOX_DWDP_eUWMmUP26OIjSjYC_yJzxYFHDoUQINf9AHCjvC0UB0sptqcO4Qx65UmruBq9M2atReEAy74wHSYPF2ffb4pseSOfg1VRV3No43nwMoM8R5K_KlSbZIWhQJJi6IkENOHE-nSZxnMVzkyQ8dWhVkHHnyDiduC4y-lOF1E_bdkwC3PgE1S_u3]--></g></svg>