<svg xmlns="http://www.w3.org/2000/svg" xmlns:xlink="http://www.w3.org/1999/xlink" contentStyleType="text/css" data-diagram-type="SEQUENCE" height="424px" preserveAspectRatio="none" style="width:861px;height:424px;background:#F9F9F9;" version="1.1" viewBox="0 0 861 424" width="861px" zoomAndPan="magnify"><defs/><g><rect fill="#F9F9F9" height="424" style="stroke:none;stroke-width:1;" width="861" x="0" y="0"/><line style="stroke:#393939;stroke-width:0.5;stroke-dasharray:5.0,5.0;" x1="130" x2="130" y1="67.2969" y2="346.3594"/><line style="stroke:#393939;stroke-width:0.5;stroke-dasharray:5.0,5.0;" x1="370.8848" x2="370.8848" y1="67.2969" y2="346.3594"/><line style="stroke:#393939;stroke-width:0.5;stroke-dasharray:5.0,5.0;" x1="589.1777" x2="589.1777" y1="67.2969" y2="346.3594"/><line style="stroke:#393939;stroke-width:0.5;stroke-dasharray:5.0,5.0;" x1="826.48" x2="826.48" y1="67.2969" y2="346.3594"/><rect fill="#E55756" height="61.25" rx="3.5" ry="3.5" style="stroke:#191919;stroke-width:1.5;" width="251.8848" x="5" y="5.0469"/><text fill="#F9F9F9" font-family="sans-serif" font-size="18" font-weight="bold" lengthAdjust="spacing" textLength="237.8848" x="12" y="28.7549">":RealEstateAds Client"</text><line style="stroke:#191919;stroke-width:1;" x1="5" x2="256.8848" y1="38" y2="38"/><text fill="#F9F9F9" font-family="monospace" font-size="14" lengthAdjust="spacing" textLength="67.4297" x="97.2275" y="55.9951">&#171;Client&#187;</text><rect fill="#E55756" height="61.25" rx="3.5" ry="3.5" style="stroke:#191919;stroke-width:1.5;" width="251.8848" x="5" y="345.3594"/><text fill="#F9F9F9" font-family="sans-serif" font-size="18" font-weight="bold" lengthAdjust="spacing" textLength="237.8848" x="12" y="369.0674">":RealEstateAds Client"</text><line style="stroke:#191919;stroke-width:1;" x1="5" x2="256.8848" y1="378.3125" y2="378.3125"/><text fill="#F9F9F9" font-family="monospace" font-size="14" lengthAdjust="spacing" textLength="67.4297" x="97.2275" y="396.3076">&#171;Client&#187;</text><rect fill="#E55756" height="61.25" rx="3.5" ry="3.5" style="stroke:#191919;stroke-width:1.5;" width="209.293" x="266.8848" y="5.0469"/><text fill="#F9F9F9" font-family="sans-serif" font-size="18" font-weight="bold" lengthAdjust="spacing" textLength="195.293" x="273.8848" y="28.7549">":Gateway Service"</text><line style="stroke:#191919;stroke-width:1;" x1="266.8848" x2="476.1777" y1="38" y2="38"/><text fill="#F9F9F9" font-family="monospace" font-size="14" lengthAdjust="spacing" textLength="75.8584" x="333.6021" y="55.9951">&#171;Service&#187;</text><rect fill="#E55756" height="61.25" rx="3.5" ry="3.5" style="stroke:#191919;stroke-width:1.5;" width="209.293" x="266.8848" y="345.3594"/><text fill="#F9F9F9" font-family="sans-serif" font-size="18" font-weight="bold" lengthAdjust="spacing" textLength="195.293" x="273.8848" y="369.0674">":Gateway Service"</text><line style="stroke:#191919;stroke-width:1;" x1="266.8848" x2="476.1777" y1="378.3125" y2="378.3125"/><text fill="#F9F9F9" font-family="monospace" font-size="14" lengthAdjust="spacing" textLength="75.8584" x="333.6021" y="396.3076">&#171;Service&#187;</text><rect fill="#E55756" height="61.25" rx="3.5" ry="3.5" style="stroke:#191919;stroke-width:1.5;" width="207.8604" x="486.1777" y="5.0469"/><text fill="#F9F9F9" font-family="sans-serif" font-size="18" font-weight="bold" lengthAdjust="spacing" textLength="188.9209" x="495.6475" y="28.7549">":Account Service"</text><line style="stroke:#191919;stroke-width:1;" x1="486.1777" x2="694.0381" y1="38" y2="38"/><text fill="#F9F9F9" font-family="monospace" font-size="14" lengthAdjust="spacing" textLength="193.8604" x="493.1777" y="55.9951">&#171;REST&#160;Service&#160;Provider&#187;</text><rect fill="#E55756" height="61.25" rx="3.5" ry="3.5" style="stroke:#191919;stroke-width:1.5;" width="207.8604" x="486.1777" y="345.3594"/><text fill="#F9F9F9" font-family="sans-serif" font-size="18" font-weight="bold" lengthAdjust="spacing" textLength="188.9209" x="495.6475" y="369.0674">":Account Service"</text><line style="stroke:#191919;stroke-width:1;" x1="486.1777" x2="694.0381" y1="378.3125" y2="378.3125"/><text fill="#F9F9F9" font-family="monospace" font-size="14" lengthAdjust="spacing" textLength="193.8604" x="493.1777" y="396.3076">&#171;REST&#160;Service&#160;Provider&#187;</text><text fill="#191919" font-family="sans-serif" font-size="14" lengthAdjust="spacing" textLength="56.7725" x="795.48" y="63.9951">Account</text><path d="M808.8662,15 C808.8662,5 826.8662,5 826.8662,5 C826.8662,5 844.8662,5 844.8662,15 L844.8662,41 C844.8662,51 826.8662,51 826.8662,51 C826.8662,51 808.8662,51 808.8662,41 L808.8662,15 " fill="#A4DBD8" style="stroke:#191919;stroke-width:1.5;"/><path d="M808.8662,15 C808.8662,25 826.8662,25 826.8662,25 C826.8662,25 844.8662,25 844.8662,15 " fill="none" style="stroke:#191919;stroke-width:1.5;"/><text fill="#191919" font-family="sans-serif" font-size="14" lengthAdjust="spacing" textLength="56.7725" x="795.48" y="358.3545">Account</text><path d="M808.8662,371.6563 C808.8662,361.6563 826.8662,361.6563 826.8662,361.6563 C826.8662,361.6563 844.8662,361.6563 844.8662,371.6563 L844.8662,397.6563 C844.8662,407.6563 826.8662,407.6563 826.8662,407.6563 C826.8662,407.6563 808.8662,407.6563 808.8662,397.6563 L808.8662,371.6563 " fill="#A4DBD8" style="stroke:#191919;stroke-width:1.5;"/><path d="M808.8662,371.6563 C808.8662,381.6563 826.8662,381.6563 826.8662,381.6563 C826.8662,381.6563 844.8662,381.6563 844.8662,371.6563 " fill="none" style="stroke:#191919;stroke-width:1.5;"/><polygon fill="#191919" points="359.5313,94.4297,369.5313,98.4297,359.5313,102.4297,363.5313,98.4297" style="stroke:#191919;stroke-width:1;"/><line style="stroke:#191919;stroke-width:1;" x1="130.9424" x2="365.5313" y1="98.4297" y2="98.4297"/><text fill="#000000" font-family="sans-serif" font-size="13" lengthAdjust="spacing" textLength="41.812" x="137.9424" y="93.3638">login()</text><polygon fill="#191919" points="578.1079,123.5625,588.1079,127.5625,578.1079,131.5625,582.1079,127.5625" style="stroke:#191919;stroke-width:1;"/><line style="stroke:#191919;stroke-width:1;" x1="371.5313" x2="584.1079" y1="127.5625" y2="127.5625"/><text fill="#000000" font-family="sans-serif" font-size="13" lengthAdjust="spacing" textLength="41.812" x="378.5313" y="122.4966">login()</text><polygon fill="#191919" points="814.8662,152.6953,824.8662,156.6953,814.8662,160.6953,818.8662,156.6953" style="stroke:#191919;stroke-width:1;"/><line style="stroke:#191919;stroke-width:1;" x1="590.1079" x2="820.8662" y1="156.6953" y2="156.6953"/><text fill="#000000" font-family="sans-serif" font-size="13" lengthAdjust="spacing" textLength="174.002" x="597.1079" y="151.6294">getAccountFromUsername</text><polygon fill="#191919" points="601.1079,181.8281,591.1079,185.8281,601.1079,189.8281,597.1079,185.8281" style="stroke:#191919;stroke-width:1;"/><line style="stroke:#191919;stroke-width:1;" x1="595.1079" x2="825.8662" y1="185.8281" y2="185.8281"/><text fill="#000000" font-family="sans-serif" font-size="13" lengthAdjust="spacing" textLength="114.8101" x="607.1079" y="180.7622">accountResponse</text><line style="stroke:#191919;stroke-width:1;" x1="590.1079" x2="632.1079" y1="214.9609" y2="214.9609"/><line style="stroke:#191919;stroke-width:1;" x1="632.1079" x2="632.1079" y1="214.9609" y2="227.9609"/><line style="stroke:#191919;stroke-width:1;" x1="591.1079" x2="632.1079" y1="227.9609" y2="227.9609"/><polygon fill="#191919" points="601.1079,223.9609,591.1079,227.9609,601.1079,231.9609,597.1079,227.9609" style="stroke:#191919;stroke-width:1;"/><text fill="#000000" font-family="sans-serif" font-size="13" lengthAdjust="spacing" textLength="222.7583" x="597.1079" y="209.895">checkCredentialsAndGenerateJWT</text><line style="stroke:#191919;stroke-width:1;stroke-dasharray:2.0,2.0;" x1="590.1079" x2="632.1079" y1="257.0938" y2="257.0938"/><line style="stroke:#191919;stroke-width:1;stroke-dasharray:2.0,2.0;" x1="632.1079" x2="632.1079" y1="257.0938" y2="270.0938"/><line style="stroke:#191919;stroke-width:1;stroke-dasharray:2.0,2.0;" x1="591.1079" x2="632.1079" y1="270.0938" y2="270.0938"/><polygon fill="#191919" points="601.1079,266.0938,591.1079,270.0938,601.1079,274.0938,597.1079,270.0938" style="stroke:#191919;stroke-width:1;"/><text fill="#000000" font-family="sans-serif" font-size="13" lengthAdjust="spacing" textLength="65.5776" x="597.1079" y="252.0278">JWT token</text><polygon fill="#191919" points="382.5313,295.2266,372.5313,299.2266,382.5313,303.2266,378.5313,299.2266" style="stroke:#191919;stroke-width:1;"/><line style="stroke:#191919;stroke-width:1;stroke-dasharray:2.0,2.0;" x1="376.5313" x2="589.1079" y1="299.2266" y2="299.2266"/><text fill="#000000" font-family="sans-serif" font-size="13" lengthAdjust="spacing" textLength="65.5776" x="388.5313" y="294.1606">JWT token</text><polygon fill="#191919" points="141.9424,324.3594,131.9424,328.3594,141.9424,332.3594,137.9424,328.3594" style="stroke:#191919;stroke-width:1;"/><line style="stroke:#191919;stroke-width:1;stroke-dasharray:2.0,2.0;" x1="135.9424" x2="370.5313" y1="328.3594" y2="328.3594"/><text fill="#000000" font-family="sans-serif" font-size="13" lengthAdjust="spacing" textLength="93.4883" x="147.9424" y="323.2935">AuthResponse</text><!--SRC=[PP31JiCm38RlVegG4npw0jMe54MZ4YVK3ks0E9ZKMgErIPLaGxmzBcr64RdzN_pPbkzIJoE94KC4c30aQ-o4BWajtk1HbWtXi8y94wak2ZrOSab2mG-atEqMK5LImZlyRL0Vbmurkv_u9LeALsje8wyasrjPjOkiZF4Npl_bPjyUCXOlmLzjHo6twZ3X1qOIgm_pqqN5EvLYy2VhxX-0Gr7DatuHXncjGqjnehI6f-37rqZ1uKW0kIBxkEI6ukHTd0lQsv_foPnre8uFPN68odKrEGfybkVZOIdDjGn4ycToD_opyGRFIpFMJDKbzNdYDm00]--></g></svg>