<svg xmlns="http://www.w3.org/2000/svg" xmlns:xlink="http://www.w3.org/1999/xlink" contentStyleType="text/css" data-diagram-type="SEQUENCE" height="673px" preserveAspectRatio="none" style="width:1245px;height:673px;background:#F9F9F9;" version="1.1" viewBox="0 0 1245 673" width="1245px" zoomAndPan="magnify"><defs/><g><rect fill="#F9F9F9" height="673" style="stroke:#FFFFFF00;stroke-width:1;" width="1245" x="0" y="0"/><g><title>=":Gateway Service"</title><rect fill="#FFFFFF" height="479.125" style="stroke:#393939;stroke-width:1;" width="10" x="366.5313" y="98.4297"/></g><g><title>=":Publish Service"</title><rect fill="#FFFFFF" height="420.8594" style="stroke:#393939;stroke-width:1;" width="10" x="585.1079" y="127.5625"/></g><g><title>=":Ads Service"</title><rect fill="#FFFFFF" height="87.3984" style="stroke:#393939;stroke-width:1;" width="10" x="802.9683" y="315.3594"/></g><g><title>=":Wallet Service"</title><rect fill="#FFFFFF" height="87.3984" style="stroke:#393939;stroke-width:1;" width="10" x="1020.8286" y="156.6953"/></g><g><title>=":Wallet Service"</title><rect fill="#FFFFFF" height="87.3984" style="stroke:#393939;stroke-width:1;" width="10" x="1020.8286" y="431.8906"/></g><g><title>Ad</title><rect fill="#FFFFFF" height="29.1328" style="stroke:#393939;stroke-width:1;" width="10" x="1152.7588" y="344.4922"/></g><g><title>Wallet</title><rect fill="#FFFFFF" height="29.1328" style="stroke:#393939;stroke-width:1;" width="10" x="1205.9106" y="185.8281"/></g><g><title>Wallet</title><rect fill="#FFFFFF" height="29.1328" style="stroke:#393939;stroke-width:1;" width="10" x="1205.9106" y="461.0234"/></g><g><title>=":RealEstateAds Client"</title><rect fill="#FFFFFF" fill-opacity="0.00000" height="528.2578" width="8" x="126.9424" y="67.2969"/><line style="stroke:#393939;stroke-width:0.5;stroke-dasharray:5.0,5.0;" x1="130" x2="130" y1="67.2969" y2="595.5547"/></g><g><title>=":Gateway Service"</title><rect fill="#FFFFFF" fill-opacity="0.00000" height="528.2578" width="8" x="367.5313" y="67.2969"/><line style="stroke:#393939;stroke-width:0.5;stroke-dasharray:5.0,5.0;" x1="370.8848" x2="370.8848" y1="67.2969" y2="595.5547"/></g><g><title>=":Publish Service"</title><rect fill="#FFFFFF" fill-opacity="0.00000" height="528.2578" width="8" x="586.1079" y="67.2969"/><line style="stroke:#393939;stroke-width:0.5;stroke-dasharray:5.0,5.0;" x1="589.1777" x2="589.1777" y1="67.2969" y2="595.5547"/></g><g><title>=":Ads Service"</title><rect fill="#FFFFFF" fill-opacity="0.00000" height="528.2578" width="8" x="803.9683" y="67.2969"/><line style="stroke:#393939;stroke-width:0.5;stroke-dasharray:5.0,5.0;" x1="807.0381" x2="807.0381" y1="67.2969" y2="595.5547"/></g><g><title>=":Wallet Service"</title><rect fill="#FFFFFF" fill-opacity="0.00000" height="528.2578" width="8" x="1021.8286" y="67.2969"/><line style="stroke:#393939;stroke-width:0.5;stroke-dasharray:5.0,5.0;" x1="1024.8984" x2="1024.8984" y1="67.2969" y2="595.5547"/></g><g><title>Ad</title><rect fill="#FFFFFF" fill-opacity="0.00000" height="528.2578" width="8" x="1153.7588" y="67.2969"/><line style="stroke:#393939;stroke-width:0.5;stroke-dasharray:5.0,5.0;" x1="1157.7588" x2="1157.7588" y1="67.2969" y2="595.5547"/></g><g><title>Wallet</title><rect fill="#FFFFFF" fill-opacity="0.00000" height="528.2578" width="8" x="1206.9106" y="67.2969"/><line style="stroke:#393939;stroke-width:0.5;stroke-dasharray:5.0,5.0;" x1="1210.7588" x2="1210.7588" y1="67.2969" y2="595.5547"/></g><rect fill="#E55756" height="61.25" rx="3.5" ry="3.5" style="stroke:#191919;stroke-width:1.5;" width="251.8848" x="5" y="5.0469"/><text fill="#F9F9F9" font-family="sans-serif" font-size="18" font-weight="bold" lengthAdjust="spacing" textLength="237.8848" x="12" y="28.7549">":RealEstateAds Client"</text><line style="stroke:#191919;stroke-width:1;" x1="5" x2="256.8848" y1="38" y2="38"/><text fill="#F9F9F9" font-family="monospace" font-size="14" lengthAdjust="spacing" textLength="67.4297" x="97.2275" y="55.9951">&#171;Client&#187;</text><rect fill="#E55756" height="61.25" rx="3.5" ry="3.5" style="stroke:#191919;stroke-width:1.5;" width="251.8848" x="5" y="594.5547"/><text fill="#F9F9F9" font-family="sans-serif" font-size="18" font-weight="bold" lengthAdjust="spacing" textLength="237.8848" x="12" y="618.2627">":RealEstateAds Client"</text><line style="stroke:#191919;stroke-width:1;" x1="5" x2="256.8848" y1="627.5078" y2="627.5078"/><text fill="#F9F9F9" font-family="monospace" font-size="14" lengthAdjust="spacing" textLength="67.4297" x="97.2275" y="645.5029">&#171;Client&#187;</text><rect fill="#E55756" height="61.25" rx="3.5" ry="3.5" style="stroke:#191919;stroke-width:1.5;" width="209.293" x="266.8848" y="5.0469"/><text fill="#F9F9F9" font-family="sans-serif" font-size="18" font-weight="bold" lengthAdjust="spacing" textLength="195.293" x="273.8848" y="28.7549">":Gateway Service"</text><line style="stroke:#191919;stroke-width:1;" x1="266.8848" x2="476.1777" y1="38" y2="38"/><text fill="#F9F9F9" font-family="monospace" font-size="14" lengthAdjust="spacing" textLength="75.8584" x="333.6021" y="55.9951">&#171;Service&#187;</text><rect fill="#E55756" height="61.25" rx="3.5" ry="3.5" style="stroke:#191919;stroke-width:1.5;" width="209.293" x="266.8848" y="594.5547"/><text fill="#F9F9F9" font-family="sans-serif" font-size="18" font-weight="bold" lengthAdjust="spacing" textLength="195.293" x="273.8848" y="618.2627">":Gateway Service"</text><line style="stroke:#191919;stroke-width:1;" x1="266.8848" x2="476.1777" y1="627.5078" y2="627.5078"/><text fill="#F9F9F9" font-family="monospace" font-size="14" lengthAdjust="spacing" textLength="75.8584" x="333.6021" y="645.5029">&#171;Service&#187;</text><rect fill="#E55756" height="61.25" rx="3.5" ry="3.5" style="stroke:#191919;stroke-width:1.5;" width="207.8604" x="486.1777" y="5.0469"/><text fill="#F9F9F9" font-family="sans-serif" font-size="18" font-weight="bold" lengthAdjust="spacing" textLength="181.8105" x="499.2026" y="28.7549">":Publish Service"</text><line style="stroke:#191919;stroke-width:1;" x1="486.1777" x2="694.0381" y1="38" y2="38"/><text fill="#F9F9F9" font-family="monospace" font-size="14" lengthAdjust="spacing" textLength="193.8604" x="493.1777" y="55.9951">&#171;REST&#160;Service&#160;Prosumer&#187;</text><rect fill="#E55756" height="61.25" rx="3.5" ry="3.5" style="stroke:#191919;stroke-width:1.5;" width="207.8604" x="486.1777" y="594.5547"/><text fill="#F9F9F9" font-family="sans-serif" font-size="18" font-weight="bold" lengthAdjust="spacing" textLength="181.8105" x="499.2026" y="618.2627">":Publish Service"</text><line style="stroke:#191919;stroke-width:1;" x1="486.1777" x2="694.0381" y1="627.5078" y2="627.5078"/><text fill="#F9F9F9" font-family="monospace" font-size="14" lengthAdjust="spacing" textLength="193.8604" x="493.1777" y="645.5029">&#171;REST&#160;Service&#160;Prosumer&#187;</text><rect fill="#E55756" height="61.25" rx="3.5" ry="3.5" style="stroke:#191919;stroke-width:1.5;" width="207.8604" x="704.0381" y="5.0469"/><text fill="#F9F9F9" font-family="sans-serif" font-size="18" font-weight="bold" lengthAdjust="spacing" textLength="144.5801" x="735.6782" y="28.7549">":Ads Service"</text><line style="stroke:#191919;stroke-width:1;" x1="704.0381" x2="911.8984" y1="38" y2="38"/><text fill="#F9F9F9" font-family="monospace" font-size="14" lengthAdjust="spacing" textLength="193.8604" x="711.0381" y="55.9951">&#171;SOAP&#160;Service&#160;Provider&#187;</text><rect fill="#E55756" height="61.25" rx="3.5" ry="3.5" style="stroke:#191919;stroke-width:1.5;" width="207.8604" x="704.0381" y="594.5547"/><text fill="#F9F9F9" font-family="sans-serif" font-size="18" font-weight="bold" lengthAdjust="spacing" textLength="144.5801" x="735.6782" y="618.2627">":Ads Service"</text><line style="stroke:#191919;stroke-width:1;" x1="704.0381" x2="911.8984" y1="627.5078" y2="627.5078"/><text fill="#F9F9F9" font-family="monospace" font-size="14" lengthAdjust="spacing" textLength="193.8604" x="711.0381" y="645.5029">&#171;SOAP&#160;Service&#160;Provider&#187;</text><rect fill="#E55756" height="61.25" rx="3.5" ry="3.5" style="stroke:#191919;stroke-width:1.5;" width="207.8604" x="921.8984" y="5.0469"/><text fill="#F9F9F9" font-family="sans-serif" font-size="18" font-weight="bold" lengthAdjust="spacing" textLength="172.2041" x="939.7266" y="28.7549">":Wallet Service"</text><line style="stroke:#191919;stroke-width:1;" x1="921.8984" x2="1129.7588" y1="38" y2="38"/><text fill="#F9F9F9" font-family="monospace" font-size="14" lengthAdjust="spacing" textLength="193.8604" x="928.8984" y="55.9951">&#171;REST&#160;Service&#160;Provider&#187;</text><rect fill="#E55756" height="61.25" rx="3.5" ry="3.5" style="stroke:#191919;stroke-width:1.5;" width="207.8604" x="921.8984" y="594.5547"/><text fill="#F9F9F9" font-family="sans-serif" font-size="18" font-weight="bold" lengthAdjust="spacing" textLength="172.2041" x="939.7266" y="618.2627">":Wallet Service"</text><line style="stroke:#191919;stroke-width:1;" x1="921.8984" x2="1129.7588" y1="627.5078" y2="627.5078"/><text fill="#F9F9F9" font-family="monospace" font-size="14" lengthAdjust="spacing" textLength="193.8604" x="928.8984" y="645.5029">&#171;REST&#160;Service&#160;Provider&#187;</text><text fill="#191919" font-family="sans-serif" font-size="14" lengthAdjust="spacing" textLength="18.4639" x="1145.5269" y="63.9951">Ad</text><path d="M1139.7588,15 C1139.7588,5 1157.7588,5 1157.7588,5 C1157.7588,5 1175.7588,5 1175.7588,15 L1175.7588,41 C1175.7588,51 1157.7588,51 1157.7588,51 C1157.7588,51 1139.7588,51 1139.7588,41 L1139.7588,15 " fill="#A4DBD8" style="stroke:#191919;stroke-width:1.5;"/><path d="M1139.7588,15 C1139.7588,25 1157.7588,25 1157.7588,25 C1157.7588,25 1175.7588,25 1175.7588,15 " fill="#FFFFFF" fill-opacity="0.00000" style="stroke:#191919;stroke-width:1.5;"/><text fill="#191919" font-family="sans-serif" font-size="14" lengthAdjust="spacing" textLength="18.4639" x="1145.5269" y="607.5498">Ad</text><path d="M1139.7588,620.8516 C1139.7588,610.8516 1157.7588,610.8516 1157.7588,610.8516 C1157.7588,610.8516 1175.7588,610.8516 1175.7588,620.8516 L1175.7588,646.8516 C1175.7588,656.8516 1157.7588,656.8516 1157.7588,656.8516 C1157.7588,656.8516 1139.7588,656.8516 1139.7588,646.8516 L1139.7588,620.8516 " fill="#A4DBD8" style="stroke:#191919;stroke-width:1.5;"/><path d="M1139.7588,620.8516 C1139.7588,630.8516 1157.7588,630.8516 1157.7588,630.8516 C1157.7588,630.8516 1175.7588,630.8516 1175.7588,620.8516 " fill="#FFFFFF" fill-opacity="0.00000" style="stroke:#191919;stroke-width:1.5;"/><text fill="#191919" font-family="sans-serif" font-size="14" lengthAdjust="spacing" textLength="44.3037" x="1185.7588" y="63.9951">Wallet</text><path d="M1192.9106,15 C1192.9106,5 1210.9106,5 1210.9106,5 C1210.9106,5 1228.9106,5 1228.9106,15 L1228.9106,41 C1228.9106,51 1210.9106,51 1210.9106,51 C1210.9106,51 1192.9106,51 1192.9106,41 L1192.9106,15 " fill="#A4DBD8" style="stroke:#191919;stroke-width:1.5;"/><path d="M1192.9106,15 C1192.9106,25 1210.9106,25 1210.9106,25 C1210.9106,25 1228.9106,25 1228.9106,15 " fill="#FFFFFF" fill-opacity="0.00000" style="stroke:#191919;stroke-width:1.5;"/><text fill="#191919" font-family="sans-serif" font-size="14" lengthAdjust="spacing" textLength="44.3037" x="1185.7588" y="607.5498">Wallet</text><path d="M1192.9106,620.8516 C1192.9106,610.8516 1210.9106,610.8516 1210.9106,610.8516 C1210.9106,610.8516 1228.9106,610.8516 1228.9106,620.8516 L1228.9106,646.8516 C1228.9106,656.8516 1210.9106,656.8516 1210.9106,656.8516 C1210.9106,656.8516 1192.9106,656.8516 1192.9106,646.8516 L1192.9106,620.8516 " fill="#A4DBD8" style="stroke:#191919;stroke-width:1.5;"/><path d="M1192.9106,620.8516 C1192.9106,630.8516 1210.9106,630.8516 1210.9106,630.8516 C1210.9106,630.8516 1228.9106,630.8516 1228.9106,620.8516 " fill="#FFFFFF" fill-opacity="0.00000" style="stroke:#191919;stroke-width:1.5;"/><g><title>=":Gateway Service"</title><rect fill="#FFFFFF" height="479.125" style="stroke:#393939;stroke-width:1;" width="10" x="366.5313" y="98.4297"/></g><g><title>=":Publish Service"</title><rect fill="#FFFFFF" height="420.8594" style="stroke:#393939;stroke-width:1;" width="10" x="585.1079" y="127.5625"/></g><g><title>=":Ads Service"</title><rect fill="#FFFFFF" height="87.3984" style="stroke:#393939;stroke-width:1;" width="10" x="802.9683" y="315.3594"/></g><g><title>=":Wallet Service"</title><rect fill="#FFFFFF" height="87.3984" style="stroke:#393939;stroke-width:1;" width="10" x="1020.8286" y="156.6953"/></g><g><title>=":Wallet Service"</title><rect fill="#FFFFFF" height="87.3984" style="stroke:#393939;stroke-width:1;" width="10" x="1020.8286" y="431.8906"/></g><g><title>Ad</title><rect fill="#FFFFFF" height="29.1328" style="stroke:#393939;stroke-width:1;" width="10" x="1152.7588" y="344.4922"/></g><g><title>Wallet</title><rect fill="#FFFFFF" height="29.1328" style="stroke:#393939;stroke-width:1;" width="10" x="1205.9106" y="185.8281"/></g><g><title>Wallet</title><rect fill="#FFFFFF" height="29.1328" style="stroke:#393939;stroke-width:1;" width="10" x="1205.9106" y="461.0234"/></g><polygon fill="#191919" points="354.5313,94.4297,364.5313,98.4297,354.5313,102.4297,358.5313,98.4297" style="stroke:#191919;stroke-width:1;"/><line style="stroke:#191919;stroke-width:1;" x1="130.9424" x2="360.5313" y1="98.4297" y2="98.4297"/><text fill="#000000" font-family="sans-serif" font-size="13" lengthAdjust="spacing" textLength="74.2676" x="137.9424" y="93.3638">publishAd()</text><polygon fill="#191919" points="573.1079,123.5625,583.1079,127.5625,573.1079,131.5625,577.1079,127.5625" style="stroke:#191919;stroke-width:1;"/><line style="stroke:#191919;stroke-width:1;" x1="376.5313" x2="579.1079" y1="127.5625" y2="127.5625"/><text fill="#000000" font-family="sans-serif" font-size="13" lengthAdjust="spacing" textLength="74.2676" x="383.5313" y="122.4966">publishAd()</text><polygon fill="#191919" points="1008.8286,152.6953,1018.8286,156.6953,1008.8286,160.6953,1012.8286,156.6953" style="stroke:#191919;stroke-width:1;"/><line style="stroke:#191919;stroke-width:1;stroke-dasharray:2.0,2.0;" x1="595.1079" x2="1014.8286" y1="156.6953" y2="156.6953"/><text fill="#000000" font-family="sans-serif" font-size="13" lengthAdjust="spacing" textLength="141.959" x="602.1079" y="151.6294">getWalletByAccount()</text><polygon fill="#191919" points="1193.9106,181.8281,1203.9106,185.8281,1193.9106,189.8281,1197.9106,185.8281" style="stroke:#191919;stroke-width:1;"/><line style="stroke:#191919;stroke-width:1;stroke-dasharray:2.0,2.0;" x1="1030.8286" x2="1199.9106" y1="185.8281" y2="185.8281"/><text fill="#000000" font-family="sans-serif" font-size="13" lengthAdjust="spacing" textLength="145.2915" x="1037.8286" y="180.7622">findWalletByAccount()</text><polygon fill="#191919" points="1041.8286,210.9609,1031.8286,214.9609,1041.8286,218.9609,1037.8286,214.9609" style="stroke:#191919;stroke-width:1;"/><line style="stroke:#191919;stroke-width:1;stroke-dasharray:2.0,2.0;" x1="1035.8286" x2="1209.9106" y1="214.9609" y2="214.9609"/><text fill="#000000" font-family="sans-serif" font-size="13" lengthAdjust="spacing" textLength="41.1392" x="1047.8286" y="209.895">Wallet</text><polygon fill="#191919" points="606.1079,240.0938,596.1079,244.0938,606.1079,248.0938,602.1079,244.0938" style="stroke:#191919;stroke-width:1;"/><line style="stroke:#191919;stroke-width:1;stroke-dasharray:2.0,2.0;" x1="600.1079" x2="1024.8286" y1="244.0938" y2="244.0938"/><text fill="#000000" font-family="sans-serif" font-size="13" lengthAdjust="spacing" textLength="41.1392" x="612.1079" y="239.0278">Wallet</text><line style="stroke:#191919;stroke-width:1;stroke-dasharray:2.0,2.0;" x1="595.1079" x2="637.1079" y1="273.2266" y2="273.2266"/><line style="stroke:#191919;stroke-width:1;stroke-dasharray:2.0,2.0;" x1="637.1079" x2="637.1079" y1="273.2266" y2="286.2266"/><line style="stroke:#191919;stroke-width:1;stroke-dasharray:2.0,2.0;" x1="596.1079" x2="637.1079" y1="286.2266" y2="286.2266"/><polygon fill="#191919" points="606.1079,282.2266,596.1079,286.2266,606.1079,290.2266,602.1079,286.2266" style="stroke:#191919;stroke-width:1;"/><text fill="#000000" font-family="sans-serif" font-size="13" lengthAdjust="spacing" textLength="149.189" x="602.1079" y="268.1606">checkEnoughBalance()</text><polygon fill="#191919" points="790.9683,311.3594,800.9683,315.3594,790.9683,319.3594,794.9683,315.3594" style="stroke:#191919;stroke-width:1;"/><line style="stroke:#191919;stroke-width:1;" x1="595.1079" x2="796.9683" y1="315.3594" y2="315.3594"/><text fill="#000000" font-family="sans-serif" font-size="13" lengthAdjust="spacing" textLength="68.8403" x="602.1079" y="310.2935">createAd()</text><polygon fill="#191919" points="1140.7588,340.4922,1150.7588,344.4922,1140.7588,348.4922,1144.7588,344.4922" style="stroke:#191919;stroke-width:1;"/><line style="stroke:#191919;stroke-width:1;" x1="812.9683" x2="1146.7588" y1="344.4922" y2="344.4922"/><text fill="#000000" font-family="sans-serif" font-size="13" lengthAdjust="spacing" textLength="68.8403" x="819.9683" y="339.4263">createAd()</text><polygon fill="#191919" points="823.9683,369.625,813.9683,373.625,823.9683,377.625,819.9683,373.625" style="stroke:#191919;stroke-width:1;"/><line style="stroke:#191919;stroke-width:1;stroke-dasharray:2.0,2.0;" x1="817.9683" x2="1156.7588" y1="373.625" y2="373.625"/><text fill="#000000" font-family="sans-serif" font-size="13" lengthAdjust="spacing" textLength="17.145" x="829.9683" y="368.5591">Ad</text><polygon fill="#191919" points="606.1079,398.7578,596.1079,402.7578,606.1079,406.7578,602.1079,402.7578" style="stroke:#191919;stroke-width:1;"/><line style="stroke:#191919;stroke-width:1;stroke-dasharray:2.0,2.0;" x1="600.1079" x2="806.9683" y1="402.7578" y2="402.7578"/><text fill="#000000" font-family="sans-serif" font-size="13" lengthAdjust="spacing" textLength="17.145" x="612.1079" y="397.6919">Ad</text><polygon fill="#191919" points="1008.8286,427.8906,1018.8286,431.8906,1008.8286,435.8906,1012.8286,431.8906" style="stroke:#191919;stroke-width:1;"/><line style="stroke:#191919;stroke-width:1;stroke-dasharray:2.0,2.0;" x1="595.1079" x2="1014.8286" y1="431.8906" y2="431.8906"/><text fill="#000000" font-family="sans-serif" font-size="13" lengthAdjust="spacing" textLength="96.2305" x="602.1079" y="426.8247">chargeWallet()</text><polygon fill="#191919" points="1193.9106,457.0234,1203.9106,461.0234,1193.9106,465.0234,1197.9106,461.0234" style="stroke:#191919;stroke-width:1;"/><line style="stroke:#191919;stroke-width:1;stroke-dasharray:2.0,2.0;" x1="1030.8286" x2="1199.9106" y1="461.0234" y2="461.0234"/><text fill="#000000" font-family="sans-serif" font-size="13" lengthAdjust="spacing" textLength="96.2305" x="1037.8286" y="455.9575">chargeWallet()</text><polygon fill="#191919" points="1041.8286,486.1563,1031.8286,490.1563,1041.8286,494.1563,1037.8286,490.1563" style="stroke:#191919;stroke-width:1;"/><line style="stroke:#191919;stroke-width:1;stroke-dasharray:2.0,2.0;" x1="1035.8286" x2="1209.9106" y1="490.1563" y2="490.1563"/><text fill="#000000" font-family="sans-serif" font-size="13" lengthAdjust="spacing" textLength="41.1392" x="1047.8286" y="485.0903">Wallet</text><polygon fill="#191919" points="606.1079,515.2891,596.1079,519.2891,606.1079,523.2891,602.1079,519.2891" style="stroke:#191919;stroke-width:1;"/><line style="stroke:#191919;stroke-width:1;stroke-dasharray:2.0,2.0;" x1="600.1079" x2="1024.8286" y1="519.2891" y2="519.2891"/><text fill="#000000" font-family="sans-serif" font-size="13" lengthAdjust="spacing" textLength="41.1392" x="612.1079" y="514.2231">Wallet</text><polygon fill="#191919" points="387.5313,544.4219,377.5313,548.4219,387.5313,552.4219,383.5313,548.4219" style="stroke:#191919;stroke-width:1;"/><line style="stroke:#191919;stroke-width:1;stroke-dasharray:2.0,2.0;" x1="381.5313" x2="589.1079" y1="548.4219" y2="548.4219"/><text fill="#000000" font-family="sans-serif" font-size="13" lengthAdjust="spacing" textLength="80.1646" x="393.5313" y="543.356">AdResponse</text><polygon fill="#191919" points="141.9424,573.5547,131.9424,577.5547,141.9424,581.5547,137.9424,577.5547" style="stroke:#191919;stroke-width:1;"/><line style="stroke:#191919;stroke-width:1;stroke-dasharray:2.0,2.0;" x1="135.9424" x2="370.5313" y1="577.5547" y2="577.5547"/><text fill="#000000" font-family="sans-serif" font-size="13" lengthAdjust="spacing" textLength="59.3315" x="147.9424" y="572.4888">response</text><!--SRC=[jPAnReCm48PtFuNBr0wyG9GYEJJAM1GgCLGTBlOrM2M0R9CgRzy3G-f4fErI1WHtt__p-xWxL-81-G6CPQm5uxJKBTIEf_oLFKQBBKArjWuS2cLvMcciNSHYkbWKBPU-a2HHnDxOfS6cy0uRqdx2YUTeZbfY81uhapeKPxaNPzskqhQS4M_N-SjKvfbfR7T0CsSbHgi-_qo6Pv65DaUjvcsAqQQ0gaBtXq0NJWeSxC0Y5ug3fVlJwhisMbBTFr6FhZHEQ8GBtleH27N_m40wVQHvqd0PDUEa7zGD9Cl9XDenKKLFxT5v_zL9IDbqjGln8cV528yXIFAkQ_MJPefxbfm_vYjCuGpiFvFTmF9pwe6G9SgFTTrq-t855TGIAS5uigJ_kOGO7FOpZ2Po9ZoXXfFCClrV6FhnP2LKcCK3GPYhzlM4PGbcZ_vClyxs9lo_GnrsIgWjshQfBOPKlp7zLX6L4cGc96HeyOAtz0i0]--></g></svg>