<svg xmlns="http://www.w3.org/2000/svg" xmlns:xlink="http://www.w3.org/1999/xlink" contentStyleType="text/css" data-diagram-type="SEQUENCE" height="953px" preserveAspectRatio="none" style="width:1595px;height:953px;background:#F9F9F9;" version="1.1" viewBox="0 0 1595 953" width="1595px" zoomAndPan="magnify"><defs/><g><rect fill="#F9F9F9" height="953" style="stroke:none;stroke-width:1;" width="1595" x="0" y="0"/><rect fill="#FFFFFF" height="335.4609" style="stroke:#393939;stroke-width:1;" width="10" x="530.7954" y="98.4297"/><rect fill="#FFFFFF" height="393.7266" style="stroke:#393939;stroke-width:1;" width="10" x="530.7954" y="463.0234"/><rect fill="#FFFFFF" height="277.1953" style="stroke:#393939;stroke-width:1;" width="10" x="940.6484" y="127.5625"/><rect fill="#FFFFFF" height="335.4609" style="stroke:#393939;stroke-width:1;" width="10" x="940.6484" y="492.1563"/><rect fill="#FFFFFF" height="87.3984" style="stroke:#393939;stroke-width:1;" width="10" x="1171.8418" y="156.6953"/><rect fill="#FFFFFF" height="87.3984" style="stroke:#393939;stroke-width:1;" width="10" x="1171.8418" y="521.2891"/><rect fill="#FFFFFF" height="29.1328" style="stroke:#393939;stroke-width:1;" width="10" x="1406.6255" y="297.3594"/><rect fill="#FFFFFF" height="29.1328" style="stroke:#393939;stroke-width:1;" width="10" x="1406.6255" y="637.8203"/><rect fill="#FFFFFF" height="64.2656" style="stroke:#393939;stroke-width:1;" width="10" x="1406.6255" y="720.2188"/><rect fill="#FFFFFF" height="29.1328" style="stroke:#393939;stroke-width:1;" width="10" x="1555.479" y="185.8281"/><rect fill="#FFFFFF" height="29.1328" style="stroke:#393939;stroke-width:1;" width="10" x="1555.479" y="550.4219"/><rect fill="none" height="117.5313" rx="3.5" ry="3.5" style="stroke:#393939;stroke-width:1;" width="724.0938" x="818.3853" y="259.0938"/><rect fill="none" height="117.5313" rx="3.5" ry="3.5" style="stroke:#393939;stroke-width:1;" width="724.0938" x="818.3853" y="681.9531"/><line style="stroke:#393939;stroke-width:0.5;stroke-dasharray:5.0,5.0;" x1="130" x2="130" y1="67.2969" y2="874.75"/><line style="stroke:#393939;stroke-width:0.5;stroke-dasharray:5.0,5.0;" x1="535.1489" x2="535.1489" y1="67.2969" y2="874.75"/><line style="stroke:#393939;stroke-width:0.5;stroke-dasharray:5.0,5.0;" x1="945.3853" x2="945.3853" y1="67.2969" y2="874.75"/><line style="stroke:#393939;stroke-width:0.5;stroke-dasharray:5.0,5.0;" x1="1175.9116" x2="1175.9116" y1="67.2969" y2="874.75"/><line style="stroke:#393939;stroke-width:0.5;stroke-dasharray:5.0,5.0;" x1="1410.772" x2="1410.772" y1="67.2969" y2="874.75"/><line style="stroke:#393939;stroke-width:0.5;stroke-dasharray:5.0,5.0;" x1="1560.479" x2="1560.479" y1="67.2969" y2="874.75"/><rect fill="#E55756" height="61.25" rx="3.5" ry="3.5" style="stroke:#191919;stroke-width:1.5;" width="251.8848" x="5" y="5.0469"/><text fill="#F9F9F9" font-family="sans-serif" font-size="18" font-weight="bold" lengthAdjust="spacing" textLength="237.8848" x="12" y="28.7549">":RealEstateAds Client"</text><line style="stroke:#191919;stroke-width:1;" x1="5" x2="256.8848" y1="38" y2="38"/><text fill="#F9F9F9" font-family="monospace" font-size="14" lengthAdjust="spacing" textLength="67.4297" x="97.2275" y="55.9951">&#171;Client&#187;</text><rect fill="#E55756" height="61.25" rx="3.5" ry="3.5" style="stroke:#191919;stroke-width:1.5;" width="251.8848" x="5" y="873.75"/><text fill="#F9F9F9" font-family="sans-serif" font-size="18" font-weight="bold" lengthAdjust="spacing" textLength="237.8848" x="12" y="897.458">":RealEstateAds Client"</text><line style="stroke:#191919;stroke-width:1;" x1="5" x2="256.8848" y1="906.7031" y2="906.7031"/><text fill="#F9F9F9" font-family="monospace" font-size="14" lengthAdjust="spacing" textLength="67.4297" x="97.2275" y="924.6982">&#171;Client&#187;</text><rect fill="#E55756" height="61.25" rx="3.5" ry="3.5" style="stroke:#191919;stroke-width:1.5;" width="209.293" x="431.1489" y="5.0469"/><text fill="#F9F9F9" font-family="sans-serif" font-size="18" font-weight="bold" lengthAdjust="spacing" textLength="195.293" x="438.1489" y="28.7549">":Gateway Service"</text><line style="stroke:#191919;stroke-width:1;" x1="431.1489" x2="640.4419" y1="38" y2="38"/><text fill="#F9F9F9" font-family="monospace" font-size="14" lengthAdjust="spacing" textLength="75.8584" x="497.8662" y="55.9951">&#171;Service&#187;</text><rect fill="#E55756" height="61.25" rx="3.5" ry="3.5" style="stroke:#191919;stroke-width:1.5;" width="209.293" x="431.1489" y="873.75"/><text fill="#F9F9F9" font-family="sans-serif" font-size="18" font-weight="bold" lengthAdjust="spacing" textLength="195.293" x="438.1489" y="897.458">":Gateway Service"</text><line style="stroke:#191919;stroke-width:1;" x1="431.1489" x2="640.4419" y1="906.7031" y2="906.7031"/><text fill="#F9F9F9" font-family="monospace" font-size="14" lengthAdjust="spacing" textLength="75.8584" x="497.8662" y="924.6982">&#171;Service&#187;</text><rect fill="#E55756" height="61.25" rx="3.5" ry="3.5" style="stroke:#191919;stroke-width:1.5;" width="234.5264" x="828.3853" y="5.0469"/><text fill="#F9F9F9" font-family="sans-serif" font-size="18" font-weight="bold" lengthAdjust="spacing" textLength="220.5264" x="835.3853" y="28.7549">":Search Ads Service"</text><line style="stroke:#191919;stroke-width:1;" x1="828.3853" x2="1062.9116" y1="38" y2="38"/><text fill="#F9F9F9" font-family="monospace" font-size="14" lengthAdjust="spacing" textLength="193.8604" x="848.7183" y="55.9951">&#171;REST&#160;Service&#160;Prosumer&#187;</text><rect fill="#E55756" height="61.25" rx="3.5" ry="3.5" style="stroke:#191919;stroke-width:1.5;" width="234.5264" x="828.3853" y="873.75"/><text fill="#F9F9F9" font-family="sans-serif" font-size="18" font-weight="bold" lengthAdjust="spacing" textLength="220.5264" x="835.3853" y="897.458">":Search Ads Service"</text><line style="stroke:#191919;stroke-width:1;" x1="828.3853" x2="1062.9116" y1="906.7031" y2="906.7031"/><text fill="#F9F9F9" font-family="monospace" font-size="14" lengthAdjust="spacing" textLength="193.8604" x="848.7183" y="924.6982">&#171;REST&#160;Service&#160;Prosumer&#187;</text><rect fill="#E55756" height="61.25" rx="3.5" ry="3.5" style="stroke:#191919;stroke-width:1.5;" width="207.8604" x="1072.9116" y="5.0469"/><text fill="#F9F9F9" font-family="sans-serif" font-size="18" font-weight="bold" lengthAdjust="spacing" textLength="144.5801" x="1104.5518" y="28.7549">":Ads Service"</text><line style="stroke:#191919;stroke-width:1;" x1="1072.9116" x2="1280.772" y1="38" y2="38"/><text fill="#F9F9F9" font-family="monospace" font-size="14" lengthAdjust="spacing" textLength="193.8604" x="1079.9116" y="55.9951">&#171;SOAP&#160;Service&#160;Provider&#187;</text><rect fill="#E55756" height="61.25" rx="3.5" ry="3.5" style="stroke:#191919;stroke-width:1.5;" width="207.8604" x="1072.9116" y="873.75"/><text fill="#F9F9F9" font-family="sans-serif" font-size="18" font-weight="bold" lengthAdjust="spacing" textLength="144.5801" x="1104.5518" y="897.458">":Ads Service"</text><line style="stroke:#191919;stroke-width:1;" x1="1072.9116" x2="1280.772" y1="906.7031" y2="906.7031"/><text fill="#F9F9F9" font-family="monospace" font-size="14" lengthAdjust="spacing" textLength="193.8604" x="1079.9116" y="924.6982">&#171;SOAP&#160;Service&#160;Provider&#187;</text><rect fill="#E55756" height="61.25" rx="3.5" ry="3.5" style="stroke:#191919;stroke-width:1.5;" width="241.707" x="1290.772" y="5.0469"/><text fill="#F9F9F9" font-family="sans-serif" font-size="18" font-weight="bold" lengthAdjust="spacing" textLength="227.707" x="1297.772" y="28.7549">":Geolocation Service"</text><line style="stroke:#191919;stroke-width:1;" x1="1290.772" x2="1532.479" y1="38" y2="38"/><text fill="#F9F9F9" font-family="monospace" font-size="14" lengthAdjust="spacing" textLength="193.8604" x="1314.6953" y="55.9951">&#171;SOAP&#160;Service&#160;Provider&#187;</text><rect fill="#E55756" height="61.25" rx="3.5" ry="3.5" style="stroke:#191919;stroke-width:1.5;" width="241.707" x="1290.772" y="873.75"/><text fill="#F9F9F9" font-family="sans-serif" font-size="18" font-weight="bold" lengthAdjust="spacing" textLength="227.707" x="1297.772" y="897.458">":Geolocation Service"</text><line style="stroke:#191919;stroke-width:1;" x1="1290.772" x2="1532.479" y1="906.7031" y2="906.7031"/><text fill="#F9F9F9" font-family="monospace" font-size="14" lengthAdjust="spacing" textLength="193.8604" x="1314.6953" y="924.6982">&#171;SOAP&#160;Service&#160;Provider&#187;</text><text fill="#191919" font-family="sans-serif" font-size="14" lengthAdjust="spacing" textLength="25.7578" x="1544.6001" y="63.9951">Ads</text><path d="M1542.479,15 C1542.479,5 1560.479,5 1560.479,5 C1560.479,5 1578.479,5 1578.479,15 L1578.479,41 C1578.479,51 1560.479,51 1560.479,51 C1560.479,51 1542.479,51 1542.479,41 L1542.479,15 " fill="#A4DBD8" style="stroke:#191919;stroke-width:1.5;"/><path d="M1542.479,15 C1542.479,25 1560.479,25 1560.479,25 C1560.479,25 1578.479,25 1578.479,15 " fill="none" style="stroke:#191919;stroke-width:1.5;"/><text fill="#191919" font-family="sans-serif" font-size="14" lengthAdjust="spacing" textLength="25.7578" x="1544.6001" y="886.7451">Ads</text><path d="M1542.479,900.0469 C1542.479,890.0469 1560.479,890.0469 1560.479,890.0469 C1560.479,890.0469 1578.479,890.0469 1578.479,900.0469 L1578.479,926.0469 C1578.479,936.0469 1560.479,936.0469 1560.479,936.0469 C1560.479,936.0469 1542.479,936.0469 1542.479,926.0469 L1542.479,900.0469 " fill="#A4DBD8" style="stroke:#191919;stroke-width:1.5;"/><path d="M1542.479,900.0469 C1542.479,910.0469 1560.479,910.0469 1560.479,910.0469 C1560.479,910.0469 1578.479,910.0469 1578.479,900.0469 " fill="none" style="stroke:#191919;stroke-width:1.5;"/><rect fill="#FFFFFF" height="335.4609" style="stroke:#393939;stroke-width:1;" width="10" x="530.7954" y="98.4297"/><rect fill="#FFFFFF" height="393.7266" style="stroke:#393939;stroke-width:1;" width="10" x="530.7954" y="463.0234"/><rect fill="#FFFFFF" height="277.1953" style="stroke:#393939;stroke-width:1;" width="10" x="940.6484" y="127.5625"/><rect fill="#FFFFFF" height="335.4609" style="stroke:#393939;stroke-width:1;" width="10" x="940.6484" y="492.1563"/><rect fill="#FFFFFF" height="87.3984" style="stroke:#393939;stroke-width:1;" width="10" x="1171.8418" y="156.6953"/><rect fill="#FFFFFF" height="87.3984" style="stroke:#393939;stroke-width:1;" width="10" x="1171.8418" y="521.2891"/><rect fill="#FFFFFF" height="29.1328" style="stroke:#393939;stroke-width:1;" width="10" x="1406.6255" y="297.3594"/><rect fill="#FFFFFF" height="29.1328" style="stroke:#393939;stroke-width:1;" width="10" x="1406.6255" y="637.8203"/><rect fill="#FFFFFF" height="64.2656" style="stroke:#393939;stroke-width:1;" width="10" x="1406.6255" y="720.2188"/><rect fill="#FFFFFF" height="29.1328" style="stroke:#393939;stroke-width:1;" width="10" x="1555.479" y="185.8281"/><rect fill="#FFFFFF" height="29.1328" style="stroke:#393939;stroke-width:1;" width="10" x="1555.479" y="550.4219"/><polygon fill="#191919" points="518.7954,94.4297,528.7954,98.4297,518.7954,102.4297,522.7954,98.4297" style="stroke:#191919;stroke-width:1;"/><line style="stroke:#191919;stroke-width:1;" x1="130.9424" x2="524.7954" y1="98.4297" y2="98.4297"/><text fill="#000000" font-family="sans-serif" font-size="13" lengthAdjust="spacing" textLength="380.853" x="137.9424" y="93.3638">searchByLatLong(centerLat,centerLong,radius,[maxPrice])</text><polygon fill="#191919" points="928.6484,123.5625,938.6484,127.5625,928.6484,131.5625,932.6484,127.5625" style="stroke:#191919;stroke-width:1;"/><line style="stroke:#191919;stroke-width:1;" x1="540.7954" x2="934.6484" y1="127.5625" y2="127.5625"/><text fill="#000000" font-family="sans-serif" font-size="13" lengthAdjust="spacing" textLength="380.853" x="547.7954" y="122.4966">searchByLatLong(centerLat,centerLong,radius,[maxPrice])</text><polygon fill="#191919" points="1159.8418,152.6953,1169.8418,156.6953,1159.8418,160.6953,1163.8418,156.6953" style="stroke:#191919;stroke-width:1;"/><line style="stroke:#191919;stroke-width:1;" x1="950.6484" x2="1165.8418" y1="156.6953" y2="156.6953"/><text fill="#000000" font-family="sans-serif" font-size="13" lengthAdjust="spacing" textLength="55.4087" x="957.6484" y="151.6294">getAds()</text><polygon fill="#191919" points="1543.479,181.8281,1553.479,185.8281,1543.479,189.8281,1547.479,185.8281" style="stroke:#191919;stroke-width:1;"/><line style="stroke:#191919;stroke-width:1;" x1="1181.8418" x2="1549.479" y1="185.8281" y2="185.8281"/><text fill="#000000" font-family="sans-serif" font-size="13" lengthAdjust="spacing" textLength="118.2251" x="1188.8418" y="180.7622">getAdsPublished()</text><polygon fill="#191919" points="1192.8418,210.9609,1182.8418,214.9609,1192.8418,218.9609,1188.8418,214.9609" style="stroke:#191919;stroke-width:1;"/><line style="stroke:#191919;stroke-width:1;stroke-dasharray:2.0,2.0;" x1="1186.8418" x2="1559.479" y1="214.9609" y2="214.9609"/><text fill="#000000" font-family="sans-serif" font-size="13" lengthAdjust="spacing" textLength="90.3525" x="1198.8418" y="209.895">published ads</text><polygon fill="#191919" points="961.6484,240.0938,951.6484,244.0938,961.6484,248.0938,957.6484,244.0938" style="stroke:#191919;stroke-width:1;"/><line style="stroke:#191919;stroke-width:1;stroke-dasharray:2.0,2.0;" x1="955.6484" x2="1175.8418" y1="244.0938" y2="244.0938"/><text fill="#000000" font-family="sans-serif" font-size="13" lengthAdjust="spacing" textLength="22.9912" x="967.6484" y="239.0278">ads</text><path d="M821.8853,259.0938 L895.0093,259.0938 L895.0093,266.2266 L885.0093,276.2266 L818.3853,276.2266 L818.3853,262.5938 A3.5,3.5 0 0 1 821.8853,259.0938 " fill="#EEEEEE" style="stroke:#393939;stroke-width:1.5;"/><rect fill="none" height="117.5313" rx="3.5" ry="3.5" style="stroke:#393939;stroke-width:1;" width="724.0938" x="818.3853" y="259.0938"/><text fill="#191919" font-family="sans-serif" font-size="13" font-weight="bold" lengthAdjust="spacing" textLength="31.624" x="833.3853" y="272.1606">loop</text><text fill="#393939" font-family="sans-serif" font-size="11" font-weight="bold" lengthAdjust="spacing" textLength="64.9634" x="910.0093" y="271.3042">[each ads]</text><polygon fill="#191919" points="1394.6255,293.3594,1404.6255,297.3594,1394.6255,301.3594,1398.6255,297.3594" style="stroke:#191919;stroke-width:1;"/><line style="stroke:#191919;stroke-width:1;" x1="950.6484" x2="1400.6255" y1="297.3594" y2="297.3594"/><text fill="#000000" font-family="sans-serif" font-size="13" lengthAdjust="spacing" textLength="358.2427" x="957.6484" y="292.2935">calculateDistance(centerLat,centerLong,adLat,adLong)</text><polygon fill="#191919" points="961.6484,322.4922,951.6484,326.4922,961.6484,330.4922,957.6484,326.4922" style="stroke:#191919;stroke-width:1;"/><line style="stroke:#191919;stroke-width:1;stroke-dasharray:2.0,2.0;" x1="955.6484" x2="1410.6255" y1="326.4922" y2="326.4922"/><text fill="#000000" font-family="sans-serif" font-size="13" lengthAdjust="spacing" textLength="118.5488" x="967.6484" y="321.4263">distance response</text><line style="stroke:#191919;stroke-width:1;" x1="950.6484" x2="992.6484" y1="355.625" y2="355.625"/><line style="stroke:#191919;stroke-width:1;" x1="992.6484" x2="992.6484" y1="355.625" y2="368.625"/><line style="stroke:#191919;stroke-width:1;" x1="951.6484" x2="992.6484" y1="368.625" y2="368.625"/><polygon fill="#191919" points="961.6484,364.625,951.6484,368.625,961.6484,372.625,957.6484,368.625" style="stroke:#191919;stroke-width:1;"/><text fill="#000000" font-family="sans-serif" font-size="13" lengthAdjust="spacing" textLength="90.7271" x="957.6484" y="350.5591">filterByRadius</text><polygon fill="#191919" points="551.7954,400.7578,541.7954,404.7578,551.7954,408.7578,547.7954,404.7578" style="stroke:#191919;stroke-width:1;"/><line style="stroke:#191919;stroke-width:1;stroke-dasharray:2.0,2.0;" x1="545.7954" x2="944.6484" y1="404.7578" y2="404.7578"/><text fill="#000000" font-family="sans-serif" font-size="13" lengthAdjust="spacing" textLength="173.894" x="557.7954" y="399.6919">adsResponse within radius</text><polygon fill="#191919" points="141.9424,429.8906,131.9424,433.8906,141.9424,437.8906,137.9424,433.8906" style="stroke:#191919;stroke-width:1;"/><line style="stroke:#191919;stroke-width:1;stroke-dasharray:2.0,2.0;" x1="135.9424" x2="534.7954" y1="433.8906" y2="433.8906"/><text fill="#000000" font-family="sans-serif" font-size="13" lengthAdjust="spacing" textLength="59.3315" x="147.9424" y="428.8247">response</text><polygon fill="#191919" points="518.7954,459.0234,528.7954,463.0234,518.7954,467.0234,522.7954,463.0234" style="stroke:#191919;stroke-width:1;"/><line style="stroke:#191919;stroke-width:1;" x1="130.9424" x2="524.7954" y1="463.0234" y2="463.0234"/><text fill="#000000" font-family="sans-serif" font-size="13" lengthAdjust="spacing" textLength="238.1133" x="137.9424" y="457.9575">searchByCity(city,radius,[maxPrice])</text><polygon fill="#191919" points="928.6484,488.1563,938.6484,492.1563,928.6484,496.1563,932.6484,492.1563" style="stroke:#191919;stroke-width:1;"/><line style="stroke:#191919;stroke-width:1;" x1="540.7954" x2="934.6484" y1="492.1563" y2="492.1563"/><text fill="#000000" font-family="sans-serif" font-size="13" lengthAdjust="spacing" textLength="238.1133" x="547.7954" y="487.0903">searchByCity(city,radius,[maxPrice])</text><polygon fill="#191919" points="1159.8418,517.2891,1169.8418,521.2891,1159.8418,525.2891,1163.8418,521.2891" style="stroke:#191919;stroke-width:1;"/><line style="stroke:#191919;stroke-width:1;" x1="950.6484" x2="1165.8418" y1="521.2891" y2="521.2891"/><text fill="#000000" font-family="sans-serif" font-size="13" lengthAdjust="spacing" textLength="55.4087" x="957.6484" y="516.2231">getAds()</text><polygon fill="#191919" points="1543.479,546.4219,1553.479,550.4219,1543.479,554.4219,1547.479,550.4219" style="stroke:#191919;stroke-width:1;"/><line style="stroke:#191919;stroke-width:1;" x1="1181.8418" x2="1549.479" y1="550.4219" y2="550.4219"/><text fill="#000000" font-family="sans-serif" font-size="13" lengthAdjust="spacing" textLength="118.2251" x="1188.8418" y="545.356">getAdsPublished()</text><polygon fill="#191919" points="1192.8418,575.5547,1182.8418,579.5547,1192.8418,583.5547,1188.8418,579.5547" style="stroke:#191919;stroke-width:1;"/><line style="stroke:#191919;stroke-width:1;stroke-dasharray:2.0,2.0;" x1="1186.8418" x2="1559.479" y1="579.5547" y2="579.5547"/><text fill="#000000" font-family="sans-serif" font-size="13" lengthAdjust="spacing" textLength="90.3525" x="1198.8418" y="574.4888">published ads</text><polygon fill="#191919" points="961.6484,604.6875,951.6484,608.6875,961.6484,612.6875,957.6484,608.6875" style="stroke:#191919;stroke-width:1;"/><line style="stroke:#191919;stroke-width:1;stroke-dasharray:2.0,2.0;" x1="955.6484" x2="1175.8418" y1="608.6875" y2="608.6875"/><text fill="#000000" font-family="sans-serif" font-size="13" lengthAdjust="spacing" textLength="22.9912" x="967.6484" y="603.6216">ads</text><polygon fill="#191919" points="1394.6255,633.8203,1404.6255,637.8203,1394.6255,641.8203,1398.6255,637.8203" style="stroke:#191919;stroke-width:1;"/><line style="stroke:#191919;stroke-width:1;" x1="950.6484" x2="1400.6255" y1="637.8203" y2="637.8203"/><text fill="#000000" font-family="sans-serif" font-size="13" lengthAdjust="spacing" textLength="155.3208" x="957.6484" y="632.7544">getLocationDetails(city)</text><polygon fill="#191919" points="961.6484,662.9531,951.6484,666.9531,961.6484,670.9531,957.6484,666.9531" style="stroke:#191919;stroke-width:1;"/><line style="stroke:#191919;stroke-width:1;stroke-dasharray:2.0,2.0;" x1="955.6484" x2="1410.6255" y1="666.9531" y2="666.9531"/><text fill="#000000" font-family="sans-serif" font-size="13" lengthAdjust="spacing" textLength="171.5645" x="967.6484" y="661.8872">Location Details Response</text><path d="M821.8853,681.9531 L895.0093,681.9531 L895.0093,689.0859 L885.0093,699.0859 L818.3853,699.0859 L818.3853,685.4531 A3.5,3.5 0 0 1 821.8853,681.9531 " fill="#EEEEEE" style="stroke:#393939;stroke-width:1.5;"/><rect fill="none" height="117.5313" rx="3.5" ry="3.5" style="stroke:#393939;stroke-width:1;" width="724.0938" x="818.3853" y="681.9531"/><text fill="#191919" font-family="sans-serif" font-size="13" font-weight="bold" lengthAdjust="spacing" textLength="31.624" x="833.3853" y="695.02">loop</text><text fill="#393939" font-family="sans-serif" font-size="11" font-weight="bold" lengthAdjust="spacing" textLength="64.9634" x="910.0093" y="694.1636">[each ads]</text><polygon fill="#191919" points="1394.6255,716.2188,1404.6255,720.2188,1394.6255,724.2188,1398.6255,720.2188" style="stroke:#191919;stroke-width:1;"/><line style="stroke:#191919;stroke-width:1;" x1="950.6484" x2="1400.6255" y1="720.2188" y2="720.2188"/><text fill="#000000" font-family="sans-serif" font-size="13" lengthAdjust="spacing" textLength="322.6196" x="957.6484" y="715.1528">calculateDistance(cityLat,cityLong,adLat,AdLong)</text><polygon fill="#191919" points="961.6484,745.3516,951.6484,749.3516,961.6484,753.3516,957.6484,749.3516" style="stroke:#191919;stroke-width:1;"/><line style="stroke:#191919;stroke-width:1;stroke-dasharray:2.0,2.0;" x1="955.6484" x2="1405.6255" y1="749.3516" y2="749.3516"/><text fill="#000000" font-family="sans-serif" font-size="13" lengthAdjust="spacing" textLength="118.5488" x="967.6484" y="744.2856">distance response</text><line style="stroke:#191919;stroke-width:1;" x1="950.6484" x2="992.6484" y1="778.4844" y2="778.4844"/><line style="stroke:#191919;stroke-width:1;" x1="992.6484" x2="992.6484" y1="778.4844" y2="791.4844"/><line style="stroke:#191919;stroke-width:1;" x1="951.6484" x2="992.6484" y1="791.4844" y2="791.4844"/><polygon fill="#191919" points="961.6484,787.4844,951.6484,791.4844,961.6484,795.4844,957.6484,791.4844" style="stroke:#191919;stroke-width:1;"/><text fill="#000000" font-family="sans-serif" font-size="13" lengthAdjust="spacing" textLength="90.7271" x="957.6484" y="773.4185">filterByRadius</text><polygon fill="#191919" points="551.7954,823.6172,541.7954,827.6172,551.7954,831.6172,547.7954,827.6172" style="stroke:#191919;stroke-width:1;"/><line style="stroke:#191919;stroke-width:1;stroke-dasharray:2.0,2.0;" x1="545.7954" x2="944.6484" y1="827.6172" y2="827.6172"/><text fill="#000000" font-family="sans-serif" font-size="13" lengthAdjust="spacing" textLength="173.894" x="557.7954" y="822.5513">adsResponse within radius</text><polygon fill="#191919" points="141.9424,852.75,131.9424,856.75,141.9424,860.75,137.9424,856.75" style="stroke:#191919;stroke-width:1;"/><line style="stroke:#191919;stroke-width:1;stroke-dasharray:2.0,2.0;" x1="135.9424" x2="534.7954" y1="856.75" y2="856.75"/><text fill="#000000" font-family="sans-serif" font-size="13" lengthAdjust="spacing" textLength="59.3315" x="147.9424" y="851.6841">response</text><!--SRC=[jLDDRwCm4BtxLtWvfLBu0r6BH4Z59L8Zl58FLGzJUxPOSW3PJhhvznqRQ4cMhhQhbWCVupTlPjuyVlWQzyZtO1rZ7LYlfUwWyRpW3-mcMLK8vjPvy9WhnmkZiV49I-bYIN9ztGUoB4dO8pidAEzxXf9oN-341TgZbZX97Y9ZzZHPv7soGB2ovg7sd_dLhVWvXldEjkwmHpl7bekURPv6tEMxASrHgtcQSg0fiJMj1A_RvhDq2ZmyWSCu4RZmsAn9E5Qa6GcsuYuEl3vjmM_RvdaXILwqzBKStYYujA3qmIqVzl1xPwdCunK3wVMHb2RP6H6bMP3m2-X4peY8w4Z35Nz6Jnql9kUvO7GIpiCaRv3TuSbeLwCwmyPXUs0wKdOZaeDoJE4bMaHe7EOI89XfsuvJf8vdR6Yr3BmIZ3mOmcqqsRUHE3yxg12WEtrCLHIid5HM0mUtwBgsSJZjWx0YJxC8_AKDCQzFLPIKOQFwfa9Nj5xgiXeO-8lsjMvuB_wKZoIFAwISWYXdIzxFUQRG_hIGTFiFW_nRxXUuuJljCDq_LTuEF-a6FMZZudWVxtX4ym7Eg_bTNvhkxvwZaj5nuVdkj_pJVll8OUUzVP_VNW40]--></g></svg>