<svg xmlns="http://www.w3.org/2000/svg" xmlns:xlink="http://www.w3.org/1999/xlink" contentStyleType="text/css" data-diagram-type="SEQUENCE" height="515px" preserveAspectRatio="none" style="width:1272px;height:515px;background:#F9F9F9;" version="1.1" viewBox="0 0 1272 515" width="1272px" zoomAndPan="magnify"><defs/><g><rect fill="#F9F9F9" height="515" style="stroke:#FFFFFF00;stroke-width:1;" width="1272" x="0" y="0"/><g><title>=":Gateway Service"</title><rect fill="#FFFFFF" height="320.4609" style="stroke:#393939;stroke-width:1;" width="10" x="366.5313" y="98.4297"/></g><g><title>=":Publish Service"</title><rect fill="#FFFFFF" height="262.1953" style="stroke:#393939;stroke-width:1;" width="10" x="585.1079" y="127.5625"/></g><g><title>=":Account Service"</title><rect fill="#FFFFFF" height="271.1953" style="stroke:#393939;stroke-width:1;" width="10" x="802.9683" y="156.6953"/></g><g><title>=":Wallet Service"</title><rect fill="#FFFFFF" height="154.6641" style="stroke:#393939;stroke-width:1;" width="10" x="1020.8286" y="273.2266"/></g><g><title>Account</title><rect fill="#FFFFFF" height="29.1328" style="stroke:#393939;stroke-width:1;" width="10" x="1166.145" y="185.8281"/></g><g><title>Wallet</title><rect fill="#FFFFFF" height="29.1328" style="stroke:#393939;stroke-width:1;" width="10" x="1232.6831" y="302.3594"/></g><g><title>=":RealEstateAds Client"</title><rect fill="#FFFFFF" fill-opacity="0.00000" height="369.5938" width="8" x="126.9424" y="67.2969"/><line style="stroke:#393939;stroke-width:0.5;stroke-dasharray:5.0,5.0;" x1="130" x2="130" y1="67.2969" y2="436.8906"/></g><g><title>=":Gateway Service"</title><rect fill="#FFFFFF" fill-opacity="0.00000" height="369.5938" width="8" x="367.5313" y="67.2969"/><line style="stroke:#393939;stroke-width:0.5;stroke-dasharray:5.0,5.0;" x1="370.8848" x2="370.8848" y1="67.2969" y2="436.8906"/></g><g><title>=":Publish Service"</title><rect fill="#FFFFFF" fill-opacity="0.00000" height="369.5938" width="8" x="586.1079" y="67.2969"/><line style="stroke:#393939;stroke-width:0.5;stroke-dasharray:5.0,5.0;" x1="589.1777" x2="589.1777" y1="67.2969" y2="436.8906"/></g><g><title>=":Account Service"</title><rect fill="#FFFFFF" fill-opacity="0.00000" height="369.5938" width="8" x="803.9683" y="67.2969"/><line style="stroke:#393939;stroke-width:0.5;stroke-dasharray:5.0,5.0;" x1="807.0381" x2="807.0381" y1="67.2969" y2="436.8906"/></g><g><title>=":Wallet Service"</title><rect fill="#FFFFFF" fill-opacity="0.00000" height="369.5938" width="8" x="1021.8286" y="67.2969"/><line style="stroke:#393939;stroke-width:0.5;stroke-dasharray:5.0,5.0;" x1="1024.8984" x2="1024.8984" y1="67.2969" y2="436.8906"/></g><g><title>Account</title><rect fill="#FFFFFF" fill-opacity="0.00000" height="369.5938" width="8" x="1167.145" y="67.2969"/><line style="stroke:#393939;stroke-width:0.5;stroke-dasharray:5.0,5.0;" x1="1170.7588" x2="1170.7588" y1="67.2969" y2="436.8906"/></g><g><title>Wallet</title><rect fill="#FFFFFF" fill-opacity="0.00000" height="369.5938" width="8" x="1233.6831" y="67.2969"/><line style="stroke:#393939;stroke-width:0.5;stroke-dasharray:5.0,5.0;" x1="1237.5313" x2="1237.5313" y1="67.2969" y2="436.8906"/></g><rect fill="#E55756" height="61.25" rx="3.5" ry="3.5" style="stroke:#191919;stroke-width:1.5;" width="251.8848" x="5" y="5.0469"/><text fill="#F9F9F9" font-family="sans-serif" font-size="18" font-weight="bold" lengthAdjust="spacing" textLength="237.8848" x="12" y="28.7549">":RealEstateAds Client"</text><line style="stroke:#191919;stroke-width:1;" x1="5" x2="256.8848" y1="38" y2="38"/><text fill="#F9F9F9" font-family="monospace" font-size="14" lengthAdjust="spacing" textLength="67.4297" x="97.2275" y="55.9951">&#171;Client&#187;</text><rect fill="#E55756" height="61.25" rx="3.5" ry="3.5" style="stroke:#191919;stroke-width:1.5;" width="251.8848" x="5" y="435.8906"/><text fill="#F9F9F9" font-family="sans-serif" font-size="18" font-weight="bold" lengthAdjust="spacing" textLength="237.8848" x="12" y="459.5986">":RealEstateAds Client"</text><line style="stroke:#191919;stroke-width:1;" x1="5" x2="256.8848" y1="468.8438" y2="468.8438"/><text fill="#F9F9F9" font-family="monospace" font-size="14" lengthAdjust="spacing" textLength="67.4297" x="97.2275" y="486.8389">&#171;Client&#187;</text><rect fill="#E55756" height="61.25" rx="3.5" ry="3.5" style="stroke:#191919;stroke-width:1.5;" width="209.293" x="266.8848" y="5.0469"/><text fill="#F9F9F9" font-family="sans-serif" font-size="18" font-weight="bold" lengthAdjust="spacing" textLength="195.293" x="273.8848" y="28.7549">":Gateway Service"</text><line style="stroke:#191919;stroke-width:1;" x1="266.8848" x2="476.1777" y1="38" y2="38"/><text fill="#F9F9F9" font-family="monospace" font-size="14" lengthAdjust="spacing" textLength="75.8584" x="333.6021" y="55.9951">&#171;Service&#187;</text><rect fill="#E55756" height="61.25" rx="3.5" ry="3.5" style="stroke:#191919;stroke-width:1.5;" width="209.293" x="266.8848" y="435.8906"/><text fill="#F9F9F9" font-family="sans-serif" font-size="18" font-weight="bold" lengthAdjust="spacing" textLength="195.293" x="273.8848" y="459.5986">":Gateway Service"</text><line style="stroke:#191919;stroke-width:1;" x1="266.8848" x2="476.1777" y1="468.8438" y2="468.8438"/><text fill="#F9F9F9" font-family="monospace" font-size="14" lengthAdjust="spacing" textLength="75.8584" x="333.6021" y="486.8389">&#171;Service&#187;</text><rect fill="#E55756" height="61.25" rx="3.5" ry="3.5" style="stroke:#191919;stroke-width:1.5;" width="207.8604" x="486.1777" y="5.0469"/><text fill="#F9F9F9" font-family="sans-serif" font-size="18" font-weight="bold" lengthAdjust="spacing" textLength="181.8105" x="499.2026" y="28.7549">":Publish Service"</text><line style="stroke:#191919;stroke-width:1;" x1="486.1777" x2="694.0381" y1="38" y2="38"/><text fill="#F9F9F9" font-family="monospace" font-size="14" lengthAdjust="spacing" textLength="193.8604" x="493.1777" y="55.9951">&#171;REST&#160;Service&#160;Prosumer&#187;</text><rect fill="#E55756" height="61.25" rx="3.5" ry="3.5" style="stroke:#191919;stroke-width:1.5;" width="207.8604" x="486.1777" y="435.8906"/><text fill="#F9F9F9" font-family="sans-serif" font-size="18" font-weight="bold" lengthAdjust="spacing" textLength="181.8105" x="499.2026" y="459.5986">":Publish Service"</text><line style="stroke:#191919;stroke-width:1;" x1="486.1777" x2="694.0381" y1="468.8438" y2="468.8438"/><text fill="#F9F9F9" font-family="monospace" font-size="14" lengthAdjust="spacing" textLength="193.8604" x="493.1777" y="486.8389">&#171;REST&#160;Service&#160;Prosumer&#187;</text><rect fill="#E55756" height="61.25" rx="3.5" ry="3.5" style="stroke:#191919;stroke-width:1.5;" width="207.8604" x="704.0381" y="5.0469"/><text fill="#F9F9F9" font-family="sans-serif" font-size="18" font-weight="bold" lengthAdjust="spacing" textLength="188.9209" x="713.5078" y="28.7549">":Account Service"</text><line style="stroke:#191919;stroke-width:1;" x1="704.0381" x2="911.8984" y1="38" y2="38"/><text fill="#F9F9F9" font-family="monospace" font-size="14" lengthAdjust="spacing" textLength="193.8604" x="711.0381" y="55.9951">&#171;SOAP&#160;Service&#160;Provider&#187;</text><rect fill="#E55756" height="61.25" rx="3.5" ry="3.5" style="stroke:#191919;stroke-width:1.5;" width="207.8604" x="704.0381" y="435.8906"/><text fill="#F9F9F9" font-family="sans-serif" font-size="18" font-weight="bold" lengthAdjust="spacing" textLength="188.9209" x="713.5078" y="459.5986">":Account Service"</text><line style="stroke:#191919;stroke-width:1;" x1="704.0381" x2="911.8984" y1="468.8438" y2="468.8438"/><text fill="#F9F9F9" font-family="monospace" font-size="14" lengthAdjust="spacing" textLength="193.8604" x="711.0381" y="486.8389">&#171;SOAP&#160;Service&#160;Provider&#187;</text><rect fill="#E55756" height="61.25" rx="3.5" ry="3.5" style="stroke:#191919;stroke-width:1.5;" width="207.8604" x="921.8984" y="5.0469"/><text fill="#F9F9F9" font-family="sans-serif" font-size="18" font-weight="bold" lengthAdjust="spacing" textLength="172.2041" x="939.7266" y="28.7549">":Wallet Service"</text><line style="stroke:#191919;stroke-width:1;" x1="921.8984" x2="1129.7588" y1="38" y2="38"/><text fill="#F9F9F9" font-family="monospace" font-size="14" lengthAdjust="spacing" textLength="193.8604" x="928.8984" y="55.9951">&#171;REST&#160;Service&#160;Provider&#187;</text><rect fill="#E55756" height="61.25" rx="3.5" ry="3.5" style="stroke:#191919;stroke-width:1.5;" width="207.8604" x="921.8984" y="435.8906"/><text fill="#F9F9F9" font-family="sans-serif" font-size="18" font-weight="bold" lengthAdjust="spacing" textLength="172.2041" x="939.7266" y="459.5986">":Wallet Service"</text><line style="stroke:#191919;stroke-width:1;" x1="921.8984" x2="1129.7588" y1="468.8438" y2="468.8438"/><text fill="#F9F9F9" font-family="monospace" font-size="14" lengthAdjust="spacing" textLength="193.8604" x="928.8984" y="486.8389">&#171;REST&#160;Service&#160;Provider&#187;</text><text fill="#191919" font-family="sans-serif" font-size="14" lengthAdjust="spacing" textLength="56.7725" x="1139.7588" y="63.9951">Account</text><path d="M1153.145,15 C1153.145,5 1171.145,5 1171.145,5 C1171.145,5 1189.145,5 1189.145,15 L1189.145,41 C1189.145,51 1171.145,51 1171.145,51 C1171.145,51 1153.145,51 1153.145,41 L1153.145,15 " fill="#A4DBD8" style="stroke:#191919;stroke-width:1.5;"/><path d="M1153.145,15 C1153.145,25 1171.145,25 1171.145,25 C1171.145,25 1189.145,25 1189.145,15 " fill="#FFFFFF" fill-opacity="0.00000" style="stroke:#191919;stroke-width:1.5;"/><text fill="#191919" font-family="sans-serif" font-size="14" lengthAdjust="spacing" textLength="56.7725" x="1139.7588" y="448.8857">Account</text><path d="M1153.145,462.1875 C1153.145,452.1875 1171.145,452.1875 1171.145,452.1875 C1171.145,452.1875 1189.145,452.1875 1189.145,462.1875 L1189.145,488.1875 C1189.145,498.1875 1171.145,498.1875 1171.145,498.1875 C1171.145,498.1875 1153.145,498.1875 1153.145,488.1875 L1153.145,462.1875 " fill="#A4DBD8" style="stroke:#191919;stroke-width:1.5;"/><path d="M1153.145,462.1875 C1153.145,472.1875 1171.145,472.1875 1171.145,472.1875 C1171.145,472.1875 1189.145,472.1875 1189.145,462.1875 " fill="#FFFFFF" fill-opacity="0.00000" style="stroke:#191919;stroke-width:1.5;"/><text fill="#191919" font-family="sans-serif" font-size="14" lengthAdjust="spacing" textLength="44.3037" x="1212.5313" y="63.9951">Wallet</text><path d="M1219.6831,15 C1219.6831,5 1237.6831,5 1237.6831,5 C1237.6831,5 1255.6831,5 1255.6831,15 L1255.6831,41 C1255.6831,51 1237.6831,51 1237.6831,51 C1237.6831,51 1219.6831,51 1219.6831,41 L1219.6831,15 " fill="#A4DBD8" style="stroke:#191919;stroke-width:1.5;"/><path d="M1219.6831,15 C1219.6831,25 1237.6831,25 1237.6831,25 C1237.6831,25 1255.6831,25 1255.6831,15 " fill="#FFFFFF" fill-opacity="0.00000" style="stroke:#191919;stroke-width:1.5;"/><text fill="#191919" font-family="sans-serif" font-size="14" lengthAdjust="spacing" textLength="44.3037" x="1212.5313" y="448.8857">Wallet</text><path d="M1219.6831,462.1875 C1219.6831,452.1875 1237.6831,452.1875 1237.6831,452.1875 C1237.6831,452.1875 1255.6831,452.1875 1255.6831,462.1875 L1255.6831,488.1875 C1255.6831,498.1875 1237.6831,498.1875 1237.6831,498.1875 C1237.6831,498.1875 1219.6831,498.1875 1219.6831,488.1875 L1219.6831,462.1875 " fill="#A4DBD8" style="stroke:#191919;stroke-width:1.5;"/><path d="M1219.6831,462.1875 C1219.6831,472.1875 1237.6831,472.1875 1237.6831,472.1875 C1237.6831,472.1875 1255.6831,472.1875 1255.6831,462.1875 " fill="#FFFFFF" fill-opacity="0.00000" style="stroke:#191919;stroke-width:1.5;"/><g><title>=":Gateway Service"</title><rect fill="#FFFFFF" height="320.4609" style="stroke:#393939;stroke-width:1;" width="10" x="366.5313" y="98.4297"/></g><g><title>=":Publish Service"</title><rect fill="#FFFFFF" height="262.1953" style="stroke:#393939;stroke-width:1;" width="10" x="585.1079" y="127.5625"/></g><g><title>=":Account Service"</title><rect fill="#FFFFFF" height="271.1953" style="stroke:#393939;stroke-width:1;" width="10" x="802.9683" y="156.6953"/></g><g><title>=":Wallet Service"</title><rect fill="#FFFFFF" height="154.6641" style="stroke:#393939;stroke-width:1;" width="10" x="1020.8286" y="273.2266"/></g><g><title>Account</title><rect fill="#FFFFFF" height="29.1328" style="stroke:#393939;stroke-width:1;" width="10" x="1166.145" y="185.8281"/></g><g><title>Wallet</title><rect fill="#FFFFFF" height="29.1328" style="stroke:#393939;stroke-width:1;" width="10" x="1232.6831" y="302.3594"/></g><polygon fill="#191919" points="354.5313,94.4297,364.5313,98.4297,354.5313,102.4297,358.5313,98.4297" style="stroke:#191919;stroke-width:1;"/><line style="stroke:#191919;stroke-width:1;" x1="130.9424" x2="360.5313" y1="98.4297" y2="98.4297"/><text fill="#000000" font-family="sans-serif" font-size="13" lengthAdjust="spacing" textLength="141.8701" x="137.9424" y="93.3638">openPublishAccount()</text><polygon fill="#191919" points="573.1079,123.5625,583.1079,127.5625,573.1079,131.5625,577.1079,127.5625" style="stroke:#191919;stroke-width:1;"/><line style="stroke:#191919;stroke-width:1;" x1="376.5313" x2="579.1079" y1="127.5625" y2="127.5625"/><text fill="#000000" font-family="sans-serif" font-size="13" lengthAdjust="spacing" textLength="141.8701" x="383.5313" y="122.4966">openPublishAccount()</text><polygon fill="#191919" points="790.9683,152.6953,800.9683,156.6953,790.9683,160.6953,794.9683,156.6953" style="stroke:#191919;stroke-width:1;"/><line style="stroke:#191919;stroke-width:1;" x1="595.1079" x2="796.9683" y1="156.6953" y2="156.6953"/><text fill="#000000" font-family="sans-serif" font-size="13" lengthAdjust="spacing" textLength="124.9346" x="602.1079" y="151.6294">openUserAccount()</text><polygon fill="#191919" points="1154.145,181.8281,1164.145,185.8281,1154.145,189.8281,1158.145,185.8281" style="stroke:#191919;stroke-width:1;"/><line style="stroke:#191919;stroke-width:1;" x1="812.9683" x2="1160.145" y1="185.8281" y2="185.8281"/><text fill="#000000" font-family="sans-serif" font-size="13" lengthAdjust="spacing" textLength="104.4126" x="819.9683" y="180.7622">createAccount()</text><polygon fill="#191919" points="823.9683,210.9609,813.9683,214.9609,823.9683,218.9609,819.9683,214.9609" style="stroke:#191919;stroke-width:1;"/><line style="stroke:#191919;stroke-width:1;stroke-dasharray:2.0,2.0;" x1="817.9683" x2="1170.145" y1="214.9609" y2="214.9609"/><text fill="#000000" font-family="sans-serif" font-size="13" lengthAdjust="spacing" textLength="105.7266" x="829.9683" y="209.895">account created</text><polygon fill="#191919" points="606.1079,240.0938,596.1079,244.0938,606.1079,248.0938,602.1079,244.0938" style="stroke:#191919;stroke-width:1;"/><line style="stroke:#191919;stroke-width:1;stroke-dasharray:2.0,2.0;" x1="600.1079" x2="801.9683" y1="244.0938" y2="244.0938"/><text fill="#000000" font-family="sans-serif" font-size="13" lengthAdjust="spacing" textLength="51.7905" x="612.1079" y="239.0278">account</text><polygon fill="#191919" points="1008.8286,269.2266,1018.8286,273.2266,1008.8286,277.2266,1012.8286,273.2266" style="stroke:#191919;stroke-width:1;"/><line style="stroke:#191919;stroke-width:1;stroke-dasharray:2.0,2.0;" x1="595.1079" x2="1014.8286" y1="273.2266" y2="273.2266"/><text fill="#000000" font-family="sans-serif" font-size="13" lengthAdjust="spacing" textLength="145.5518" x="602.1079" y="268.1606">createAccountWallet()</text><polygon fill="#191919" points="1220.6831,298.3594,1230.6831,302.3594,1220.6831,306.3594,1224.6831,302.3594" style="stroke:#191919;stroke-width:1;"/><line style="stroke:#191919;stroke-width:1;stroke-dasharray:2.0,2.0;" x1="1030.8286" x2="1226.6831" y1="302.3594" y2="302.3594"/><text fill="#000000" font-family="sans-serif" font-size="13" lengthAdjust="spacing" textLength="92.8345" x="1037.8286" y="297.2935">createWallet()</text><polygon fill="#191919" points="1041.8286,327.4922,1031.8286,331.4922,1041.8286,335.4922,1037.8286,331.4922" style="stroke:#191919;stroke-width:1;"/><line style="stroke:#191919;stroke-width:1;stroke-dasharray:2.0,2.0;" x1="1035.8286" x2="1236.6831" y1="331.4922" y2="331.4922"/><text fill="#000000" font-family="sans-serif" font-size="13" lengthAdjust="spacing" textLength="92.8535" x="1047.8286" y="326.4263">wallet created</text><polygon fill="#191919" points="606.1079,356.625,596.1079,360.625,606.1079,364.625,602.1079,360.625" style="stroke:#191919;stroke-width:1;"/><line style="stroke:#191919;stroke-width:1;stroke-dasharray:2.0,2.0;" x1="600.1079" x2="1019.8286" y1="360.625" y2="360.625"/><text fill="#000000" font-family="sans-serif" font-size="13" lengthAdjust="spacing" textLength="92.8535" x="612.1079" y="355.5591">wallet created</text><polygon fill="#191919" points="387.5313,385.7578,377.5313,389.7578,387.5313,393.7578,383.5313,389.7578" style="stroke:#191919;stroke-width:1;"/><line style="stroke:#191919;stroke-width:1;stroke-dasharray:2.0,2.0;" x1="381.5313" x2="589.1079" y1="389.7578" y2="389.7578"/><text fill="#000000" font-family="sans-serif" font-size="13" lengthAdjust="spacing" textLength="177.3662" x="393.5313" y="384.6919">wallet and account created</text><polygon fill="#191919" points="141.9424,414.8906,131.9424,418.8906,141.9424,422.8906,137.9424,418.8906" style="stroke:#191919;stroke-width:1;"/><line style="stroke:#191919;stroke-width:1;stroke-dasharray:2.0,2.0;" x1="135.9424" x2="370.5313" y1="418.8906" y2="418.8906"/><text fill="#000000" font-family="sans-serif" font-size="13" lengthAdjust="spacing" textLength="59.3315" x="147.9424" y="413.8247">response</text><!--SRC=[ZLBBRiCW4BplLr2VseD_84ejKJVAiLPevKFL0x5N2f9V0fAeVz-D0OT4g2qds9qPXbaUx05xPBtK1c2Isgf6JNAmh6IVy9ojTYYxZR7I8cyDApk5WyqWfmLPjbwxGb5a6Np1hS2sTWfRufxbDnEeJwh1YEmhWHsJA-78rN7VAND8a7SRyHxAhDAZEVQeKrBSI_6c6OzqJlXuurKiTL9jMghsKhNiEhJ_C7MZr4ehzz8W2qwa2TlNbslNYrFJxQX7gymB2dJ5nWa77uhdFZw1RAmwKSoKEH0gBoxv_OMj112Ai3nWFmpg190Bu0uOp1A-qNZv4mdqyg8hF0-tIFzonswXnHHFp8Gg8i1ibOgrkB_RXHGxg0NK7kq3N3W9SCXumIxNdDqW4bwlfCZg7JmudgVcUt9eVuk09ZAFZrWbaJIQQHmCGeoX2KUdyWS0]--></g></svg>