<svg xmlns="http://www.w3.org/2000/svg" xmlns:xlink="http://www.w3.org/1999/xlink" contentStyleType="text/css" data-diagram-type="DESCRIPTION" height="849px" preserveAspectRatio="none" style="width:1254px;height:849px;background:#FFFFFF;" version="1.1" viewBox="0 0 1254 849" width="1254px" zoomAndPan="magnify"><defs/><g><!--cluster SU--><g id="cluster_SU"><path d="M8.5,304 L117.125,304 A3.75,3.75 0 0 1 119.625,306.5 L126.625,326.2969 L126.36,326.2969 A2.5,2.5 0 0 1 128.86,328.7969 L128.86,575.5 A2.5,2.5 0 0 1 126.36,578 L8.5,578 A2.5,2.5 0 0 1 6,575.5 L6,306.5 A2.5,2.5 0 0 1 8.5,304 " fill="#FFFFFF" fill-opacity="0.00000" style="stroke:#000000;stroke-width:1.5;"/><line style="stroke:#000000;stroke-width:1.5;" x1="6" x2="126.625" y1="326.2969" y2="326.2969"/><text fill="#000000" font-family="sans-serif" font-size="14" font-weight="bold" lengthAdjust="spacing" textLength="107.625" x="10" y="318.9951">System Users</text></g><!--cluster RealEstateAds System--><g id="cluster_RealEstateAds System"><rect fill="#FFFFFF" fill-opacity="0.00000" height="836" rx="2.5" ry="2.5" style="stroke:#181818;stroke-width:1;" width="954.47" x="293.86" y="7"/><text fill="#000000" font-family="sans-serif" font-size="14" font-weight="bold" lengthAdjust="spacing" textLength="177.126" x="682.532" y="21.9951">RealEstateAds System</text></g><!--entity User--><g id="elem_User"><ellipse cx="67.4351" cy="375.35" fill="#F1F1F1" rx="8" ry="8" style="stroke:#181818;stroke-width:0.5;"/><path d="M67.4351,383.35 L67.4351,410.35 M54.4351,391.35 L80.4351,391.35 M67.4351,410.35 L54.4351,425.35 M67.4351,410.35 L80.4351,425.35 " fill="#FFFFFF" fill-opacity="0.00000" style="stroke:#181818;stroke-width:0.5;"/><text fill="#000000" font-family="sans-serif" font-size="14" lengthAdjust="spacing" textLength="31.9102" x="51.48" y="439.8451">User</text></g><!--entity Admin--><g id="elem_Admin"><ellipse cx="67.4321" cy="486.35" fill="#F1F1F1" rx="8" ry="8" style="stroke:#181818;stroke-width:0.5;"/><path d="M67.4321,494.35 L67.4321,521.35 M54.4321,502.35 L80.4321,502.35 M67.4321,521.35 L54.4321,536.35 M67.4321,521.35 L80.4321,536.35 " fill="#FFFFFF" fill-opacity="0.00000" style="stroke:#181818;stroke-width:0.5;"/><text fill="#000000" font-family="sans-serif" font-size="14" lengthAdjust="spacing" textLength="44.8643" x="45" y="550.8451">Admin</text></g><g id="elem_Login"><ellipse cx="455.125" cy="162.0037" fill="#E45756" rx="39.655" ry="26.6337" style="stroke:#822727;stroke-width:0.5;"/><text fill="#000000" font-family="sans-serif" font-size="14" font-style="italic" lengthAdjust="spacing" textLength="50.5518" x="429.8491" y="157.6844">&#171;Main&#187;</text><text fill="#FFFFFF" font-family="sans-serif" font-size="14" lengthAdjust="spacing" textLength="38.0146" x="436.1177" y="173.9813">Login</text></g><g id="elem_Ricerca Annunci avanzata"><ellipse cx="833.5302" cy="148.996" fill="#F1F1F1" rx="108.1302" ry="24.026" style="stroke:#181818;stroke-width:0.5;"/><text fill="#000000" font-family="sans-serif" font-size="14" lengthAdjust="spacing" textLength="181.8291" x="742.6156" y="151.8427">Ricerca Annunci avanzata</text></g><g id="elem_Ricerca Annunci semplice"><ellipse cx="833.5252" cy="66.001" fill="#F1F1F1" rx="107.3052" ry="23.861" style="stroke:#181818;stroke-width:0.5;"/><text fill="#000000" font-family="sans-serif" font-size="14" lengthAdjust="spacing" textLength="180.0381" x="743.5062" y="68.8477">Ricerca Annunci semplice</text></g><g id="elem_Dettagli Account"><ellipse cx="833.528" cy="727.0016" fill="#F1F1F1" rx="79.308" ry="18.2616" style="stroke:#181818;stroke-width:0.5;"/><text fill="#000000" font-family="sans-serif" font-size="14" lengthAdjust="spacing" textLength="116.8398" x="773.1768" y="730.459">Dettagli Account</text></g><g id="elem_Annunci pubblicati"><ellipse cx="833.5314" cy="366.9983" fill="#F1F1F1" rx="84.8914" ry="19.3783" style="stroke:#181818;stroke-width:0.5;"/><text fill="#000000" font-family="sans-serif" font-size="14" lengthAdjust="spacing" textLength="130.0742" x="768.4943" y="369.845">Annunci pubblicati</text></g><g id="elem_Dettagli Annuncio"><ellipse cx="1149.4949" cy="512.997" fill="#F1F1F1" rx="82.8349" ry="18.967" style="stroke:#181818;stroke-width:0.5;"/><text fill="#000000" font-family="sans-serif" font-size="14" lengthAdjust="spacing" textLength="125.2891" x="1086.2012" y="516.0624">Dettagli Annuncio</text></g><g id="elem_Dettagli Wallet"><ellipse cx="833.5331" cy="295.0026" fill="#F1F1F1" rx="74.3631" ry="17.2726" style="stroke:#181818;stroke-width:0.5;"/><text fill="#000000" font-family="sans-serif" font-size="14" lengthAdjust="spacing" textLength="104.3711" x="778.3476" y="298.7502">Dettagli Wallet</text></g><g id="elem_Ricarica Wallet"><ellipse cx="833.5298" cy="224.998" fill="#F1F1F1" rx="74.4398" ry="17.288" style="stroke:#181818;stroke-width:0.5;"/><text fill="#000000" font-family="sans-serif" font-size="14" lengthAdjust="spacing" textLength="104.5693" x="778.2452" y="228.7455">Ricarica Wallet</text></g><g id="elem_Pubblica Annuncio"><ellipse cx="833.527" cy="440.9994" fill="#F1F1F1" rx="84.347" ry="19.2694" style="stroke:#181818;stroke-width:0.5;"/><text fill="#000000" font-family="sans-serif" font-size="14" lengthAdjust="spacing" textLength="128.8164" x="768.9719" y="443.8968">Pubblica Annuncio</text></g><g id="elem_Approva Annuncio"><ellipse cx="833.5346" cy="513.9969" fill="#F1F1F1" rx="84.0846" ry="19.2169" style="stroke:#181818;stroke-width:0.5;"/><text fill="#000000" font-family="sans-serif" font-size="14" lengthAdjust="spacing" textLength="128.208" x="769.1984" y="516.9235">Approva Annuncio</text></g><g id="elem_Lista Annunci"><ellipse cx="833.532" cy="656.9984" fill="#F1F1F1" rx="70.492" ry="16.4984" style="stroke:#181818;stroke-width:0.5;"/><text fill="#000000" font-family="sans-serif" font-size="14" lengthAdjust="spacing" textLength="94.1582" x="783.4529" y="660.746">Lista Annunci</text></g><g id="elem_Rigetta Annuncio"><ellipse cx="833.5348" cy="587.001" fill="#F1F1F1" rx="80.7548" ry="18.551" style="stroke:#181818;stroke-width:0.5;"/><text fill="#000000" font-family="sans-serif" font-size="14" lengthAdjust="spacing" textLength="120.3467" x="771.9764" y="590.2976">Rigetta Annuncio</text></g><g id="elem_Promuovi User ad Admin"><ellipse cx="833.5322" cy="804.0004" fill="#F1F1F1" rx="104.3522" ry="23.2704" style="stroke:#181818;stroke-width:0.5;"/><text fill="#000000" font-family="sans-serif" font-size="14" lengthAdjust="spacing" textLength="173.6055" x="746.7295" y="806.8471">Promuovi User ad Admin</text></g><g id="elem_Ricerca Annunci"><ellipse cx="455.1258" cy="248.0024" fill="#E45756" rx="83.6658" ry="24.0224" style="stroke:#822727;stroke-width:0.5;"/><text fill="#000000" font-family="sans-serif" font-size="14" font-style="italic" lengthAdjust="spacing" textLength="50.5518" x="423.7011" y="241.4377">&#171;Main&#187;</text><text fill="#FFFFFF" font-family="sans-serif" font-size="14" lengthAdjust="spacing" textLength="113.0664" x="392.4437" y="257.7346">Ricerca Annunci</text></g><g id="elem_Registrazione Account con Wallet"><ellipse cx="455.1307" cy="71.0001" fill="#E45756" rx="133.1507" ry="29.0301" style="stroke:#822727;stroke-width:0.5;"/><text fill="#000000" font-family="sans-serif" font-size="14" font-style="italic" lengthAdjust="spacing" textLength="50.5518" x="428.5956" y="58.3136">&#171;Main&#187;</text><text fill="#FFFFFF" font-family="sans-serif" font-size="14" lengthAdjust="spacing" textLength="235.0879" x="336.3275" y="74.6105">Registrazione Account con Wallet</text></g><g id="elem_PUB"><ellipse cx="455.1253" cy="587.0031" fill="#E45756" rx="145.2653" ry="31.4531" style="stroke:#822727;stroke-width:0.5;"/><text fill="#000000" font-family="sans-serif" font-size="14" font-style="italic" lengthAdjust="spacing" textLength="50.5518" x="429.8495" y="573.5529">&#171;Main&#187;</text><text fill="#FFFFFF" font-family="sans-serif" font-size="14" lengthAdjust="spacing" textLength="260.6133" x="324.8187" y="589.8497">Gestione Operazioni di pubblicazione</text></g><g id="elem_Gestione Account"><ellipse cx="455.1347" cy="726.997" fill="#E45756" rx="90.0647" ry="23.957" style="stroke:#822727;stroke-width:0.5;"/><text fill="#000000" font-family="sans-serif" font-size="14" font-style="italic" lengthAdjust="spacing" textLength="50.5518" x="423.5018" y="720.269">&#171;Main&#187;</text><text fill="#FFFFFF" font-family="sans-serif" font-size="14" lengthAdjust="spacing" textLength="123.4092" x="387.0731" y="736.5659">Gestione Account</text></g><g id="elem_Gestione Wallet"><ellipse cx="455.1347" cy="330.9984" fill="#E45756" rx="82.3547" ry="24.0384" style="stroke:#822727;stroke-width:0.5;"/><text fill="#000000" font-family="sans-serif" font-size="14" font-style="italic" lengthAdjust="spacing" textLength="50.5518" x="423.7524" y="324.4719">&#171;Main&#187;</text><text fill="#FFFFFF" font-family="sans-serif" font-size="14" lengthAdjust="spacing" textLength="110.9404" x="393.558" y="340.7688">Gestione Wallet</text></g><g id="elem_Gestione Pubblicazione"><ellipse cx="455.13" cy="443.996" fill="#E45756" rx="109.98" ry="24.396" style="stroke:#822727;stroke-width:0.5;"/><text fill="#000000" font-family="sans-serif" font-size="14" font-style="italic" lengthAdjust="spacing" textLength="50.5518" x="423.3739" y="436.3613">&#171;Main&#187;</text><text fill="#FFFFFF" font-family="sans-serif" font-size="14" lengthAdjust="spacing" textLength="163.0713" x="367.1142" y="452.6581">Gestione Pubblicazione</text></g><!--entity Guest--><g id="elem_Guest"><ellipse cx="67.4291" cy="60.35" fill="#F1F1F1" rx="8" ry="8" style="stroke:#181818;stroke-width:0.5;"/><path d="M67.4291,68.35 L67.4291,95.35 M54.4291,76.35 L80.4291,76.35 M67.4291,95.35 L54.4291,110.35 M67.4291,95.35 L80.4291,110.35 " fill="#FFFFFF" fill-opacity="0.00000" style="stroke:#181818;stroke-width:0.5;"/><text fill="#000000" font-family="sans-serif" font-size="14" lengthAdjust="spacing" textLength="41.1182" x="46.87" y="124.8451">Guest</text></g><!--link Annunci pubblicati to Dettagli Annuncio--><g id="link_Annunci pubblicati_Dettagli Annuncio"><path d="M885.27,382.76 C903.3,388.82 923.6,396.18 941.66,404 C1006.28,431.99 1073.1148,469.1083 1112.8348,492.0583 " fill="#FFFFFF" fill-opacity="0.00000" id="Annunci pubblicati-to-Dettagli Annuncio" style="stroke:#181818;stroke-width:1;stroke-dasharray:7.0,7.0;"/><polygon fill="#181818" points="1118.03,495.06,1112.2384,487.094,1113.7007,492.5586,1108.2361,494.0208,1118.03,495.06" style="stroke:#181818;stroke-width:1;"/><text fill="#000000" font-family="sans-serif" font-size="13" lengthAdjust="spacing" textLength="63.0068" x="972.66" y="416.0669">&#171;include&#187;</text></g><!--link Lista Annunci to Dettagli Annuncio--><g id="link_Lista Annunci_Dettagli Annuncio"><path d="M880.53,644.4 C899.72,638.63 922.05,631.24 941.66,623 C1007.08,595.49 1074.2496,557.4311 1113.6796,534.0411 " fill="#FFFFFF" fill-opacity="0.00000" id="Lista Annunci-to-Dettagli Annuncio" style="stroke:#181818;stroke-width:1;stroke-dasharray:7.0,7.0;"/><polygon fill="#181818" points="1118.84,530.98,1109.0587,532.1315,1114.5397,533.531,1113.1402,539.012,1118.84,530.98" style="stroke:#181818;stroke-width:1;"/><text fill="#000000" font-family="sans-serif" font-size="13" lengthAdjust="spacing" textLength="63.0068" x="972.66" y="575.0669">&#171;include&#187;</text></g><!--link Ricerca Annunci to Ricerca Annunci semplice--><g id="link_Ricerca Annunci_Ricerca Annunci semplice"><path d="M529.88,236.82 C553.98,230.59 579.81,220.94 600.39,206 C619.55,192.1 613.05,178.11 630.39,162 C666.14,128.79 681.36,128.01 725.39,107 C741.03,99.54 752.8032,94.5464 768.9432,88.3964 " fill="#FFFFFF" fill-opacity="0.00000" id="Ricerca Annunci-to-Ricerca Annunci semplice" style="stroke:#181818;stroke-width:1;stroke-dasharray:7.0,7.0;"/><polygon fill="#181818" points="774.55,86.26,764.7156,85.7268,769.8777,88.0403,767.5641,93.2024,774.55,86.26" style="stroke:#181818;stroke-width:1;"/><text fill="#000000" font-family="sans-serif" font-size="13" lengthAdjust="spacing" textLength="63.0068" x="631.39" y="118.0669">&#171;include&#187;</text></g><!--link Ricerca Annunci to Ricerca Annunci avanzata--><g id="link_Ricerca Annunci_Ricerca Annunci avanzata"><path d="M517.86,231.76 C585.02,214.1 686.3573,187.446 756.6273,168.966 " fill="#FFFFFF" fill-opacity="0.00000" id="Ricerca Annunci-to-Ricerca Annunci avanzata" style="stroke:#181818;stroke-width:1;stroke-dasharray:7.0,7.0;"/><polygon fill="#181818" points="762.43,167.44,752.7086,165.8606,757.5944,168.7117,754.7433,173.5975,762.43,167.44" style="stroke:#181818;stroke-width:1;"/><text fill="#000000" font-family="sans-serif" font-size="13" lengthAdjust="spacing" textLength="63.0068" x="631.39" y="183.0669">&#171;include&#187;</text></g><!--link PUB to Approva Annuncio--><g id="link_PUB_Approva Annuncio"><path d="M564.49,565.98 C630.41,553.2 706.4699,538.453 762.2799,527.623 " fill="#FFFFFF" fill-opacity="0.00000" id="PUB-to-Approva Annuncio" style="stroke:#181818;stroke-width:1;stroke-dasharray:7.0,7.0;"/><polygon fill="#181818" points="768.17,526.48,758.5728,524.2677,763.2616,527.4325,760.0968,532.1212,768.17,526.48" style="stroke:#181818;stroke-width:1;"/><text fill="#000000" font-family="sans-serif" font-size="13" lengthAdjust="spacing" textLength="63.0068" x="631.39" y="538.0669">&#171;include&#187;</text></g><!--link PUB to Rigetta Annuncio--><g id="link_PUB_Rigetta Annuncio"><path d="M600.85,587 C652.34,587 702.42,587 746.51,587 " fill="#FFFFFF" fill-opacity="0.00000" id="PUB-to-Rigetta Annuncio" style="stroke:#181818;stroke-width:1;stroke-dasharray:7.0,7.0;"/><polygon fill="#181818" points="752.51,587,743.51,583,747.51,587,743.51,591,752.51,587" style="stroke:#181818;stroke-width:1;"/><text fill="#000000" font-family="sans-serif" font-size="13" lengthAdjust="spacing" textLength="63.0068" x="631.39" y="583.0669">&#171;include&#187;</text></g><!--link PUB to Lista Annunci--><g id="link_PUB_Lista Annunci"><path d="M566.52,607.53 C635.72,620.4 716.0511,635.343 771.2211,645.603 " fill="#FFFFFF" fill-opacity="0.00000" id="PUB-to-Lista Annunci" style="stroke:#181818;stroke-width:1;stroke-dasharray:7.0,7.0;"/><polygon fill="#181818" points="777.12,646.7,769.0031,641.1219,772.2043,645.7858,767.5404,648.9871,777.12,646.7" style="stroke:#181818;stroke-width:1;"/><text fill="#000000" font-family="sans-serif" font-size="13" lengthAdjust="spacing" textLength="63.0068" x="631.39" y="616.0669">&#171;include&#187;</text></g><!--link Gestione Account to Promuovi User ad Admin--><g id="link_Gestione Account_Promuovi User ad Admin"><path d="M527.37,741.57 C592.48,754.89 682.6518,773.337 749.5418,787.027 " fill="#FFFFFF" fill-opacity="0.00000" id="Gestione Account-to-Promuovi User ad Admin" style="stroke:#181818;stroke-width:1;stroke-dasharray:7.0,7.0;"/><polygon fill="#181818" points="755.42,788.23,747.4048,782.5067,750.5215,787.2275,745.8007,790.3442,755.42,788.23" style="stroke:#181818;stroke-width:1;"/><text fill="#000000" font-family="sans-serif" font-size="13" lengthAdjust="spacing" textLength="63.0068" x="631.39" y="759.0669">&#171;include&#187;</text></g><!--link Gestione Account to Dettagli Account--><g id="link_Gestione Account_Dettagli Account"><path d="M545.33,727 C608.7,727 687,727 747.87,727 " fill="#FFFFFF" fill-opacity="0.00000" id="Gestione Account-to-Dettagli Account" style="stroke:#181818;stroke-width:1;stroke-dasharray:7.0,7.0;"/><polygon fill="#181818" points="753.87,727,744.87,723,748.87,727,744.87,731,753.87,727" style="stroke:#181818;stroke-width:1;"/><text fill="#000000" font-family="sans-serif" font-size="13" lengthAdjust="spacing" textLength="63.0068" x="631.39" y="723.0669">&#171;include&#187;</text></g><!--link Gestione Wallet to Dettagli Wallet--><g id="link_Gestione Wallet_Dettagli Wallet"><path d="M534.27,324.01 C581.03,319.78 641.63,314.22 695.39,309 C718.02,306.8 736.7713,304.922 758.9113,302.652 " fill="#FFFFFF" fill-opacity="0.00000" id="Gestione Wallet-to-Dettagli Wallet" style="stroke:#181818;stroke-width:1;stroke-dasharray:7.0,7.0;"/><polygon fill="#181818" points="764.88,302.04,755.519,298.9788,759.9061,302.55,756.3349,306.9371,764.88,302.04" style="stroke:#181818;stroke-width:1;"/><text fill="#000000" font-family="sans-serif" font-size="13" lengthAdjust="spacing" textLength="63.0068" x="631.39" y="305.0669">&#171;include&#187;</text></g><!--link Gestione Wallet to Ricarica Wallet--><g id="link_Gestione Wallet_Ricarica Wallet"><path d="M515.36,314.32 C589.78,293.36 710.2848,259.4269 778.9048,240.0969 " fill="#FFFFFF" fill-opacity="0.00000" id="Gestione Wallet-to-Ricarica Wallet" style="stroke:#181818;stroke-width:1;stroke-dasharray:7.0,7.0;"/><polygon fill="#181818" points="784.68,238.47,774.9326,237.0601,779.8673,239.8257,777.1017,244.7604,784.68,238.47" style="stroke:#181818;stroke-width:1;"/><text fill="#000000" font-family="sans-serif" font-size="13" lengthAdjust="spacing" textLength="63.0068" x="631.39" y="262.0669">&#171;include&#187;</text></g><!--link Gestione Pubblicazione to Pubblica Annuncio--><g id="link_Gestione Pubblicazione_Pubblica Annuncio"><path d="M565.12,446.13 C605.98,446.61 652.82,446.78 695.39,446 C713.14,445.68 726.1736,445.3291 744.2436,444.6991 " fill="#FFFFFF" fill-opacity="0.00000" id="Gestione Pubblicazione-to-Pubblica Annuncio" style="stroke:#181818;stroke-width:1;stroke-dasharray:7.0,7.0;"/><polygon fill="#181818" points="750.24,444.49,741.1061,440.806,745.243,444.6642,741.3848,448.8012,750.24,444.49" style="stroke:#181818;stroke-width:1;"/><text fill="#000000" font-family="sans-serif" font-size="13" lengthAdjust="spacing" textLength="63.0068" x="631.39" y="442.0669">&#171;include&#187;</text></g><!--link Gestione Pubblicazione to Annunci pubblicati--><g id="link_Gestione Pubblicazione_Annunci pubblicati"><path d="M537.34,427.39 C606.82,413.17 699.5516,394.202 763.3216,381.162 " fill="#FFFFFF" fill-opacity="0.00000" id="Gestione Pubblicazione-to-Annunci pubblicati" style="stroke:#181818;stroke-width:1;stroke-dasharray:7.0,7.0;"/><polygon fill="#181818" points="769.2,379.96,759.5811,377.8441,764.3014,380.9617,761.1838,385.682,769.2,379.96" style="stroke:#181818;stroke-width:1;"/><text fill="#000000" font-family="sans-serif" font-size="13" lengthAdjust="spacing" textLength="63.0068" x="631.39" y="393.0669">&#171;include&#187;</text></g><!--link Guest to Ricerca Annunci--><g id="link_Guest_Ricerca Annunci"><path d="M88.32,102.78 C125.66,126.26 209.4,176.57 285.86,206 C317.48,218.17 347.946,226.4343 378.736,233.3543 " fill="#FFFFFF" fill-opacity="0.00000" id="Guest-to-Ricerca Annunci" style="stroke:#181818;stroke-width:1;"/><polygon fill="#181818" points="384.59,234.67,376.6862,228.7938,379.7117,233.5736,374.9319,236.5991,384.59,234.67" style="stroke:#181818;stroke-width:1;"/></g><!--link Guest to Registrazione Account con Wallet--><g id="link_Guest_Registrazione Account con Wallet"><path d="M88.17,82.08 C105.04,75.76 130.11,67.42 152.86,64 C211.97,55.11 272.3301,55.1916 327.6901,58.4116 " fill="#FFFFFF" fill-opacity="0.00000" id="Guest-to-Registrazione Account con Wallet" style="stroke:#181818;stroke-width:1;"/><polygon fill="#181818" points="333.68,58.76,324.9275,54.2441,328.6884,58.4697,324.4629,62.2307,333.68,58.76" style="stroke:#181818;stroke-width:1;"/></g><!--link Guest to Login--><g id="link_Guest_Login"><path d="M88.36,93.72 C149.67,105.17 330.352,138.8886 410.732,153.8986 " fill="#FFFFFF" fill-opacity="0.00000" id="Guest-to-Login" style="stroke:#181818;stroke-width:1;"/><polygon fill="#181818" points="416.63,155,408.5172,149.4159,411.715,154.0822,407.0487,157.2799,416.63,155" style="stroke:#181818;stroke-width:1;"/></g><!--link SU to Login--><g id="link_SU_Login"><path d="M108.1191,303.8473 C108.3759,303.678 108.6337,303.5081 108.8926,303.3377 C109.9279,302.6561 110.9794,301.9657 112.0464,301.2669 C120.5829,295.6766 130.1191,289.5516 140.4213,283.1213 C181.63,257.4 235.095,226.795 285.86,206 C329.17,188.26 375.8386,177.0571 410.5686,170.0471 " fill="#FFFFFF" fill-opacity="0.00000" id="SU-to-Login" style="stroke:#181818;stroke-width:1;"/><polygon fill="#181818" points="416.45,168.86,406.8365,166.7197,411.5488,169.8493,408.4193,174.5616,416.45,168.86" style="stroke:#181818;stroke-width:1;"/></g><!--link SU to Ricerca Annunci--><g id="link_SU_Ricerca Annunci"><path d="M129.6799,340.1153 C133.0375,339.3928 138.9916,315.8147 142.5333,315.0526 C156.6998,312.0043 172.2659,308.6547 188.6513,305.1287 C254.1925,291.025 326.9743,275.3623 381.5743,263.6123 " fill="#FFFFFF" fill-opacity="0.00000" id="SU-to-Ricerca Annunci" style="stroke:#181818;stroke-width:1;"/><polygon fill="#181818" points="387.44,262.35,377.7999,260.333,382.5519,263.4019,379.483,268.1539,387.44,262.35" style="stroke:#181818;stroke-width:1;"/></g><!--link User to Gestione Pubblicazione--><g id="link_User_Gestione Pubblicazione"><path d="M83.55,406.53 C127.91,411.01 254.5104,423.8166 348.3904,433.3066 " fill="#FFFFFF" fill-opacity="0.00000" id="User-to-Gestione Pubblicazione" style="stroke:#181818;stroke-width:1;"/><polygon fill="#181818" points="354.36,433.91,345.8079,429.0251,349.3854,433.4071,345.0033,436.9846,354.36,433.91" style="stroke:#181818;stroke-width:1;"/></g><!--link User to Gestione Wallet--><g id="link_User_Gestione Wallet"><path d="M83.55,402.1 C133.06,392.6 286.5875,363.1406 379.4075,345.3306 " fill="#FFFFFF" fill-opacity="0.00000" id="User-to-Gestione Wallet" style="stroke:#181818;stroke-width:1;"/><polygon fill="#181818" points="385.3,344.2,375.7075,341.9676,380.3896,345.1422,377.215,349.8243,385.3,344.2" style="stroke:#181818;stroke-width:1;"/></g><!--link Admin to Gestione Pubblicazione--><g id="link_Admin_Gestione Pubblicazione"><path d="M90.27,511.92 C143.1,502.06 274.1519,477.601 364.1519,460.801 " fill="#FFFFFF" fill-opacity="0.00000" id="Admin-to-Gestione Pubblicazione" style="stroke:#181818;stroke-width:1;"/><polygon fill="#181818" points="370.05,459.7,360.4688,457.4194,365.1349,460.6175,361.9368,465.2836,370.05,459.7" style="stroke:#181818;stroke-width:1;"/></g><!--link Admin to Gestione Account--><g id="link_Admin_Gestione Account"><path d="M90.31,528.16 C129.47,549.89 214.16,596.83 285.86,636 C329.58,659.88 374.5577,684.1745 408.6777,702.5545 " fill="#FFFFFF" fill-opacity="0.00000" id="Admin-to-Gestione Account" style="stroke:#181818;stroke-width:1;"/><polygon fill="#181818" points="413.96,705.4,407.9335,697.6102,409.5581,703.0287,404.1395,704.6533,413.96,705.4" style="stroke:#181818;stroke-width:1;"/></g><!--link Admin to PUB--><g id="link_Admin_PUB"><path d="M90.06,523.65 C106.97,529.38 131.18,537.07 152.86,542 C209.2,554.81 266.375,564.0697 320.225,571.4097 " fill="#FFFFFF" fill-opacity="0.00000" id="Admin-to-PUB" style="stroke:#181818;stroke-width:1;"/><polygon fill="#181818" points="326.17,572.22,317.7927,567.0411,321.2158,571.5447,316.7122,574.9679,326.17,572.22" style="stroke:#181818;stroke-width:1;"/></g><!--SRC=[bLHDRzim3BtpLn3PfJcqXs1T1gC8aEoZbmuBKWGzipRd2hKbGvO3h4F_-sXvjkCFTTl11p- -HpwHbCfdfGkob6DLSambuo-07SNFgJMLJZwPpDYR6_n6IkDcW-_u_VNw-WFiZ4tOJg8VLwlrQWrVZNRZsCEJSWpm2X3TLbow2A2GCfGoBkv_bevpF9PiomLIYVT7iH7L_n54soHNEl9Iox4ZdMQYEJ1bNqf7ZhU927o61OhiuiwaIY-nhmqP_t3e35gLFZbCL9r66GrmSL0nsvXmgtMbOuLq8lr2ZfRJKCbvaGaceS_i7AMPmcqSIvUSG2shg1uVXKLEpODuTRN1imGDmomn4iDAnrcLi3Zk6G-KPUmQFsJbwv7zdxHz5YbP5DQS1j2TaZQrmEJ_lmsTPJwej4RFeRqrUMLEoWyJAK4_lILCUpsOq3JeRGLdC7RtR_9kkYDvROvJQOkb5zaBRkUAiT5jkmTkRsM1FV5xmOr6oLfrS_P9pXNrJk-FEv2lSJOPqyXHHvoqE4GSJNLqmDvnkxBpv-cYFcTWcEFc1zIJMn8szMQFs-0mQOk6l0nKuxiJTh8FZJ3CQLerkOj1PtFokPTYlAC0_k74oylfQYy7iR_jSaVszEQz1917TuXuOAwMNmSV2XngZj7MzZlqjdgEqZsrVR2-KGYllm40]--></g></svg>